<?xml version="1.0" encoding="UTF-8"?>
<svg version="1.1" xmlns="http://www.w3.org/2000/svg" width="546" height="546">
<path d="M0 0 C1.01313263 0.00182281 2.02626526 0.00364563 3.07009888 0.00552368 C18.04296209 0.05085975 32.63067081 0.48183182 47.375 3.3125 C48.31134277 3.48410645 49.24768555 3.65571289 50.21240234 3.83251953 C77.55062805 8.94046319 103.82439943 18.28078868 128.375 31.3125 C129.42155762 31.85680664 129.42155762 31.85680664 130.48925781 32.41210938 C148.22959669 41.66863105 164.42735559 53.02348458 179.375 66.3125 C180.26964966 67.08122437 180.26964966 67.08122437 181.18237305 67.86547852 C194.59531577 79.41999145 206.8887224 92.04975726 217.375 106.3125 C218.11363281 107.25609375 218.85226562 108.1996875 219.61328125 109.171875 C244.85141243 141.62730479 260.95228634 180.08157896 269.1875 220.1875 C269.38263184 221.13641113 269.57776367 222.08532227 269.77880859 223.06298828 C272.9791579 239.64661648 273.75053814 256.08110046 273.6875 272.9375 C273.68476578 274.45719894 273.68476578 274.45719894 273.68197632 276.00759888 C273.63664025 290.98046209 273.20566818 305.56817081 270.375 320.3125 C270.20339355 321.24884277 270.03178711 322.18518555 269.85498047 323.14990234 C264.74703681 350.48812805 255.40671132 376.76189943 242.375 401.3125 C242.01212891 402.01020508 241.64925781 402.70791016 241.27539062 403.42675781 C232.01886895 421.16709669 220.66401542 437.36485559 207.375 452.3125 C206.86251709 452.90893311 206.35003418 453.50536621 205.82202148 454.11987305 C194.26750855 467.53281577 181.63774274 479.8262224 167.375 490.3125 C165.95960938 491.42044922 165.95960938 491.42044922 164.515625 492.55078125 C132.06019521 517.78891243 93.60592104 533.88978634 53.5 542.125 C52.55108887 542.32013184 51.60217773 542.51526367 50.62451172 542.71630859 C34.04088352 545.9166579 17.60639954 546.68803814 0.75 546.625 C-0.26313263 546.62317719 -1.27626526 546.62135437 -2.32009888 546.61947632 C-17.29296209 546.57414025 -31.88067081 546.14316818 -46.625 543.3125 C-47.56134277 543.14089355 -48.49768555 542.96928711 -49.46240234 542.79248047 C-76.80062805 537.68453681 -103.07439943 528.34421132 -127.625 515.3125 C-128.32270508 514.94962891 -129.02041016 514.58675781 -129.73925781 514.21289062 C-147.47959669 504.95636895 -163.67735559 493.60151542 -178.625 480.3125 C-179.22143311 479.80001709 -179.81786621 479.28753418 -180.43237305 478.75952148 C-193.84531577 467.20500855 -206.1387224 454.57524274 -216.625 440.3125 C-217.36363281 439.36890625 -218.10226563 438.4253125 -218.86328125 437.453125 C-244.10141243 404.99769521 -260.20228634 366.54342104 -268.4375 326.4375 C-268.63263184 325.48858887 -268.82776367 324.53967773 -269.02880859 323.56201172 C-272.2291579 306.97838352 -273.00053814 290.54389954 -272.9375 273.6875 C-272.93567719 272.67436737 -272.93385437 271.66123474 -272.93197632 270.61740112 C-272.88664025 255.64453791 -272.45566818 241.05682919 -269.625 226.3125 C-269.45339355 225.37615723 -269.28178711 224.43981445 -269.10498047 223.47509766 C-263.99703681 196.13687195 -254.65671132 169.86310057 -241.625 145.3125 C-241.26212891 144.61479492 -240.89925781 143.91708984 -240.52539062 143.19824219 C-231.26886895 125.45790331 -219.91401542 109.26014441 -206.625 94.3125 C-205.85627563 93.41785034 -205.85627563 93.41785034 -205.07202148 92.50512695 C-193.51750855 79.09218423 -180.88774274 66.7987776 -166.625 56.3125 C-165.68140625 55.57386719 -164.7378125 54.83523437 -163.765625 54.07421875 C-131.31019521 28.83608757 -92.85592104 12.73521366 -52.75 4.5 C-51.80108887 4.30486816 -50.85217773 4.10973633 -49.87451172 3.90869141 C-33.29088352 0.7083421 -16.85639954 -0.06303814 0 0 Z " fill="#FDFCFC" transform="translate(272.625,-0.3125)"/>
<path d="M0 0 C38.28 0 76.56 0 116 0 C116 12.87 116 25.74 116 39 C113.16293457 39.01981934 110.32586914 39.03963867 107.40283203 39.06005859 C98.04693687 39.12685594 88.69115458 39.2044967 79.33539009 39.28752708 C73.66095568 39.33755112 67.98654044 39.38388047 62.31201172 39.421875 C56.83953127 39.45865082 51.36720894 39.50498944 45.89486313 39.55806351 C43.80322915 39.57664854 41.71156123 39.59174117 39.61987686 39.60334396 C36.69840423 39.62013632 33.777297 39.64915387 30.85595703 39.68115234 C29.98417816 39.68331253 29.11239929 39.68547272 28.21420288 39.68769836 C23.62908513 39.54615078 23.62908513 39.54615078 20 42 C19.69345365 44.01608115 19.69345365 44.01608115 19.73828697 46.3690815 C19.73082148 47.29268003 19.72335599 48.21627856 19.71566427 49.16786492 C19.717599 50.18924959 19.71953374 51.21063425 19.7215271 52.26296997 C19.7128385 53.88261998 19.7128385 53.88261998 19.70397437 55.53499019 C19.68687912 59.17716506 19.68408969 62.81921395 19.68115234 66.46142578 C19.67186074 69.06267613 19.66169323 71.66392348 19.65071106 74.26516724 C19.62840471 79.87783393 19.61341178 85.49048228 19.60334396 91.10318375 C19.58877699 99.21826523 19.56324582 107.33328285 19.53501268 115.44832693 C19.48950856 128.61348362 19.45290876 141.77864949 19.421875 154.94384766 C19.39170425 167.73487968 19.3573608 180.52588924 19.31738281 193.31689453 C19.31492126 194.10493592 19.31245972 194.8929773 19.30992357 195.70489873 C19.29754926 199.65815249 19.28509267 203.61140599 19.27259517 207.56465936 C19.16897319 240.37641301 19.08142219 273.18818189 19 306 C-18.95 306 -56.9 306 -96 306 C-96 247.59 -96 189.18 -96 129 C-88.74 129 -81.48 129 -74 129 C-74.33 131.97 -74.66 134.94 -75 138 C-73.60007813 138.1134375 -72.20015625 138.226875 -70.7578125 138.34375 C-64.69214179 138.95053073 -58.82234617 140.19083575 -52.875 141.5 C-46.25845434 142.94556241 -39.739175 144.28891199 -33 145 C-32.87882812 143.97261719 -32.75765625 142.94523438 -32.6328125 141.88671875 C-31.66939931 133.86926005 -30.5782545 125.92485239 -29 118 C-29.99 118 -30.98 118 -32 118 C-32 120.64 -32 123.28 -32 126 C-36.62 126 -41.24 126 -46 126 C-46 115.44 -46 104.88 -46 94 C-38.41 94 -30.82 94 -23 94 C-22.67 91.69 -22.34 89.38 -22 87 C-21.34 87 -20.68 87 -20 87 C-20 84.69 -20 82.38 -20 80 C-20.62003906 79.90203125 -21.24007812 79.8040625 -21.87890625 79.703125 C-27.44364711 78.7635181 -32.81751384 77.53414783 -38.25 76 C-45.78786157 73.92379558 -53.22904026 72.83772048 -61 72 C-61.18175781 73.051875 -61.18175781 73.051875 -61.3671875 74.125 C-61.53476563 75.07375 -61.70234375 76.0225 -61.875 77 C-62.03742188 77.928125 -62.19984375 78.85625 -62.3671875 79.8125 C-63.11551651 83.58186094 -64.04534659 87.27765393 -65 91 C-68.95096978 91.04939662 -72.9018203 91.08571755 -76.85302734 91.10986328 C-78.8591136 91.12488107 -80.86511324 91.15028981 -82.87109375 91.17578125 C-84.12792969 91.18222656 -85.38476562 91.18867188 -86.6796875 91.1953125 C-87.84226074 91.20578613 -89.00483398 91.21625977 -90.20263672 91.22705078 C-93 91 -93 91 -95 89 C-95.00924245 86.43367947 -94.8950934 83.98888091 -94.6875 81.4375 C-94.57588408 79.82437224 -94.46665292 78.21107831 -94.359375 76.59765625 C-94.29943359 75.71352051 -94.23949219 74.82938477 -94.17773438 73.91845703 C-93.84214722 68.40800531 -93.64726352 62.8914264 -93.4375 57.375 C-93.39391357 56.25407959 -93.35032715 55.13315918 -93.30541992 53.97827148 C-93.20231768 51.31889471 -93.10049783 48.65947625 -93 46 C-93.43245384 50.67686556 -93.85948696 55.35418467 -94.28173828 60.03198242 C-94.42579607 61.61967976 -94.57127452 63.20724892 -94.71826172 64.79467773 C-96.65670694 78.54921966 -96.65670694 78.54921966 -95 92 C-79.82 92.33 -64.64 92.66 -49 93 C-49 104.22 -49 115.44 -49 127 C-56.88716602 127.08417966 -64.77267909 127.16428071 -72.65990448 127.20700073 C-76.33377048 127.22801232 -80.00725965 127.25602903 -83.6809082 127.30175781 C-87.22766472 127.3456244 -90.77405877 127.36922168 -94.3210659 127.37950897 C-96.31445154 127.39035921 -98.30769393 127.42151824 -100.30085754 127.45318604 C-109.07047298 127.45532195 -118.40795187 126.7615408 -125.125 120.4375 C-134.45152615 108.313016 -127.78696443 76.59589319 -126 62 C-124.59095397 51.96004521 -122.81976421 41.97230785 -121 32 C-120.34 32 -119.68 32 -119 32 C-118.8453125 30.205625 -118.8453125 30.205625 -118.6875 28.375 C-117.67124886 20.66504136 -113.77217724 15.92191876 -108 11 C-101.66509579 6.28531322 -93.82553986 4.48513959 -85.99584961 4.58007812 C-82.14045947 5.39124278 -80.27347031 8.35980276 -78 11.375 C-77.22982544 12.33466675 -77.22982544 12.33466675 -76.4440918 13.3137207 C-74.94133341 15.19340548 -73.4699853 17.094655 -72 19 C-70.60612637 20.73074676 -69.21057138 22.46014235 -67.8125 24.1875 C-67.18601563 24.97898438 -66.55953125 25.77046875 -65.9140625 26.5859375 C-61.37328414 32.31287837 -56.75230962 37.97614091 -51.984375 43.515625 C-51.47817627 44.10561279 -50.97197754 44.69560059 -50.45043945 45.3034668 C-49.45593613 46.45973539 -48.45718607 47.61236736 -47.45385742 48.76098633 C-44 52.77863791 -44 52.77863791 -44 55 C-40.45291909 51.58429246 -37.39542855 48.05889483 -34.4375 44.125 C-30.01301364 38.27954817 -25.46266212 32.54599503 -20.84741211 26.85009766 C-18.16866779 23.59553632 -18.16866779 23.59553632 -16 20 C-15.34 20 -14.68 20 -14 20 C-13.67708984 18.96939453 -13.67708984 18.96939453 -13.34765625 17.91796875 C-11.60494188 14.14461329 -9.17480523 11.4073022 -6.4375 8.3125 C-2.85080297 4.41394767 -2.85080297 4.41394767 0 0 Z " fill="#020202" transform="translate(251,155)"/>
<path d="M0 0 C47.52 0 95.04 0 144 0 C144 14.52 144 29.04 144 44 C125.69945034 58.3790033 125.69945034 58.3790033 117.67114258 58.35644531 C116.59221992 58.35951187 116.59221992 58.35951187 115.49150085 58.36264038 C113.12558159 58.36563677 110.7603671 58.34720999 108.39453125 58.328125 C106.74737216 58.32506593 105.10021047 58.32319093 103.45304871 58.32244873 C100.00741622 58.31785326 96.56201843 58.30345346 93.11645508 58.28125 C88.69440528 58.25290157 84.27253965 58.24203096 79.8504076 58.2375679 C76.45242972 58.23341753 73.05448922 58.22360433 69.65653038 58.21169281 C68.02540066 58.20598748 66.39426735 58.20122964 64.7631321 58.19742584 C62.48891459 58.19057235 60.21484445 58.17694605 57.94067383 58.16113281 C55.99805412 58.15089081 55.99805412 58.15089081 54.01618958 58.14044189 C51 58 51 58 49 57 C49.97468354 51.50632911 49.97468354 51.50632911 51 49 C52.64363134 48.27840576 54.31050386 47.60648579 56 47 C56.89830839 43.94727535 56.89830839 43.94727535 57 41 C55.68 40.34 54.36 39.68 53 39 C53 38.34 53 37.68 53 37 C53.74765625 36.93941406 54.4953125 36.87882812 55.265625 36.81640625 C56.25046875 36.73261719 57.2353125 36.64882813 58.25 36.5625 C59.22453125 36.48128906 60.1990625 36.40007812 61.203125 36.31640625 C63.93905092 36.07366763 63.93905092 36.07366763 66.296875 35.40234375 C66.85890625 35.26957031 67.4209375 35.13679688 68 35 C69.99977858 36.99977858 69.43532807 40.84329904 69.62109375 43.5546875 C69.8632494 46.25068778 69.8632494 46.25068778 72 49 C73.98 49.66 75.96 50.32 78 51 C78 46.05 78 41.1 78 36 C98.46 36 118.92 36 140 36 C140.58694707 22.71370636 140.58694707 22.71370636 135 18 C132.2201184 16.6100592 130.0813674 16.81511796 127 17 C124.8577095 17.64396991 124.8577095 17.64396991 123 19 C121.8774351 21.16281282 121.8774351 21.16281282 121.25 23.625 C120.88648438 24.85089844 120.88648438 24.85089844 120.515625 26.1015625 C120.34546875 26.72804688 120.1753125 27.35453125 120 28 C119.01 28 118.02 28 117 28 C116.67 20.41 116.34 12.82 116 5 C114.68 6.32 113.36 7.64 112 9 C111.34 9 110.68 9 110 9 C110 15.27 110 21.54 110 28 C109.34 28 108.68 28 108 28 C107.74605469 27.37351562 107.49210937 26.74703125 107.23046875 26.1015625 C106.71419922 24.87566406 106.71419922 24.87566406 106.1875 23.625 C105.85105469 22.81289063 105.51460938 22.00078125 105.16796875 21.1640625 C104.05560918 18.69852542 104.05560918 18.69852542 101 17 C96.92819137 16.46526439 96.92819137 16.46526439 93 17 C89.55324668 20.80956946 88.65894415 24.02316756 87 29 C80.73 29 74.46 29 68 29 C67.28385417 26.42838542 66.56770833 23.85677083 65.8515625 21.28515625 C65.23339896 18.83254913 65.23339896 18.83254913 63 18 C62.505 17.01 62.505 17.01 62 16 C59.60347472 15.91860858 57.20974564 15.85932991 54.8125 15.8125 C54.13896484 15.78736328 53.46542969 15.76222656 52.77148438 15.73632812 C48.24249411 15.67005022 45.69066373 16.42935488 42 19 C41.34 19 40.68 19 40 19 C40 19.99 40 20.98 40 22 C41.20398438 21.97679687 42.40796875 21.95359375 43.6484375 21.9296875 C45.22395215 21.91093137 46.79947348 21.89273101 48.375 21.875 C49.1690625 21.85824219 49.963125 21.84148437 50.78125 21.82421875 C52.85492015 21.80664527 54.92883241 21.89664832 57 22 C59 24 59 24 59 29 C45.14 29 31.28 29 17 29 C17 31.31 17 33.62 17 36 C18.65 36 20.3 36 22 36 C21.42655063 38.86724686 21.1385485 39.8614515 19 42 C15.4375 41.75 15.4375 41.75 12 41 C10.74751498 38.49502996 10.88625594 36.79146726 10.90234375 33.9921875 C10.90556641 33.00605469 10.90878906 32.01992188 10.91210938 31.00390625 C10.92048828 29.97136719 10.92886719 28.93882812 10.9375 27.875 C10.94201172 26.83472656 10.94652344 25.79445313 10.95117188 24.72265625 C10.96298048 22.14838038 10.97944925 19.57421854 11 17 C7.37206002 18.86566488 7.37206002 18.86566488 5 22 C4.84855186 24.95032632 4.76857595 27.86124618 4.75 30.8125 C4.729375 31.62009766 4.70875 32.42769531 4.6875 33.25976562 C4.6564405 38.00022182 4.88261489 41.17610472 8 45 C11.72066472 47.48044315 14.86540474 47.44381173 19.1875 47.625 C19.93708984 47.66367187 20.68667969 47.70234375 21.45898438 47.7421875 C23.30559199 47.83628216 25.1527619 47.91922319 27 48 C27.1340625 47.20851563 27.268125 46.41703125 27.40625 45.6015625 C28.07032649 42.69185893 28.86094897 41.96079678 31 40 C31.33 39.01 31.66 38.02 32 37 C33.98 37 35.96 37 38 37 C38.12117188 37.74765625 38.24234375 38.4953125 38.3671875 39.265625 C38.53476562 40.25046875 38.70234375 41.2353125 38.875 42.25 C39.03742188 43.22453125 39.19984375 44.1990625 39.3671875 45.203125 C39.95195902 47.78767074 40.79411992 49.66863185 42 52 C42.125 54.75 42.125 54.75 42 57 C37.76897412 58.18926272 33.66090919 58.12556322 29.296875 58.09765625 C28.5538916 58.09664917 27.8109082 58.09564209 27.04541016 58.09460449 C24.28025765 58.08938776 21.51512721 58.0754265 18.75 58.0625 C12.5625 58.041875 6.375 58.02125 0 58 C0 38.86 0 19.72 0 0 Z " fill="#E91D25" transform="translate(301,442)"/>
<path d="M0 0 C38.28 0 76.56 0 116 0 C116 12.21 116 24.42 116 37 C77.72 37 39.44 37 0 37 C0 24.79 0 12.58 0 0 Z " fill="#050505" transform="translate(154,465)"/>
<path d="M0 0 C1.02416016 -0.01160156 2.04832031 -0.02320312 3.10351562 -0.03515625 C17.5828556 0.0203556 17.5828556 0.0203556 21.9375 4.375 C23.42314593 32.97368421 23.42314593 32.97368421 17.375 42.953125 C15.67441033 45.8182489 15.44908912 47.88262055 15.25 51.1875 C15.146875 52.899375 15.04375 54.61125 14.9375 56.375 C21.2075 56.375 27.4775 56.375 33.9375 56.375 C32.83202428 60.7969029 30.93282061 63.0190137 28 66.3125 C24.17487697 70.71675264 20.46673611 75.16722943 16.9375 79.8125 C16.12760645 80.8776059 15.31771059 81.94271005 14.5078125 83.0078125 C14.09692383 83.54825195 13.68603516 84.08869141 13.26269531 84.64550781 C10.80823694 87.848784 8.30916046 91.01707991 5.8125 94.1875 C5.32652344 94.80488037 4.84054688 95.42226074 4.33984375 96.05834961 C3.20629021 97.49767511 2.07198278 98.93640682 0.9375 100.375 C-4.14030225 96.32106235 -8.25575556 91.98550429 -12.25 86.875 C-13.37189472 85.46340874 -14.49563626 84.05328357 -15.62109375 82.64453125 C-16.18683105 81.93635254 -16.75256836 81.22817383 -17.33544922 80.49853516 C-20.57662637 76.51327097 -23.9641024 72.65141268 -27.36791992 68.8046875 C-29.5290714 66.32931427 -31.01148847 64.52803458 -32.0625 61.375 C-32.7225 61.375 -33.3825 61.375 -34.0625 61.375 C-34.0625 60.385 -34.0625 59.395 -34.0625 58.375 C-31.83399723 58.03725668 -29.60466533 57.7049813 -27.375 57.375 C-26.13363281 57.189375 -24.89226562 57.00375 -23.61328125 56.8125 C-20.0625 56.375 -20.0625 56.375 -15.0625 56.375 C-15.0625 52.085 -15.0625 47.795 -15.0625 43.375 C-15.7225 43.375 -16.3825 43.375 -17.0625 43.375 C-17.72094127 41.88049145 -18.363521 40.37899308 -19 38.875 C-19.35964844 38.0396875 -19.71929687 37.204375 -20.08984375 36.34375 C-22.48567568 29.0311706 -22.18990801 21.48421559 -22.125 13.875 C-22.12048828 12.86179687 -22.11597656 11.84859375 -22.11132812 10.8046875 C-22.09964593 8.32806173 -22.08326582 5.85156343 -22.0625 3.375 C-14.60417671 0.65518503 -7.90712029 -0.0899104 0 0 Z " fill="#0D0D0D" transform="translate(208.0625,98.625)"/>
<path d="M0 0 C48.51 0 97.02 0 147 0 C147 14.85 147 29.7 147 45 C146.67 45 146.34 45 146 45 C146 30.81 146 16.62 146 2 C98.48 2 50.96 2 2 2 C2 21.14 2 40.28 2 60 C8.208125 59.87625 14.41625 59.7525 20.8125 59.625 C23.74733276 59.57400146 23.74733276 59.57400146 26.74145508 59.52197266 C28.292498 59.48676653 29.84352492 59.45084526 31.39453125 59.4140625 C32.19967163 59.40270264 33.00481201 59.39134277 33.83435059 59.37963867 C37.71188319 59.2787657 39.70263085 59.1982461 43 57 C42.45823983 54.65237261 41.80854212 52.50446196 40.9375 50.25 C39.79598784 46.29275783 39.85844585 43.10507023 40 39 C38.02 39 36.04 39 34 39 C33.896875 39.763125 33.79375 40.52625 33.6875 41.3125 C32.93772808 44.24342658 32.16526733 45.01517162 30 47 C29.67 47.99 29.34 48.98 29 50 C26.43635517 50.10845031 23.87733721 50.18749744 21.3125 50.25 C20.59126953 50.28351563 19.87003906 50.31703125 19.12695312 50.3515625 C15.32293727 50.42104224 13.43364366 50.26451678 10.10546875 48.234375 C5.63277984 43.487848 5.63501905 39.29936073 5.625 33.0625 C5.60050781 32.26392578 5.57601563 31.46535156 5.55078125 30.64257812 C5.53067814 26.59850161 5.71350447 24.4785085 7.8359375 20.93359375 C10 19 10 19 13 19 C13.33 26.92 13.66 34.84 14 43 C16.31 43 18.62 43 21 43 C23.00864359 40.6273026 23.00864359 40.6273026 24 38 C22.35 38 20.7 38 19 38 C19 35.69 19 33.38 19 31 C32.86 31 46.72 31 61 31 C60.34 29.02 59.68 27.04 59 25 C53.39 24.67 47.78 24.34 42 24 C42 23.01 42 22.02 42 21 C47.54401292 17.25981599 51.32052739 16.45515632 57.9375 16.75 C58.71673828 16.76804687 59.49597656 16.78609375 60.29882812 16.8046875 C62.19976131 16.85133617 64.10005169 16.92306171 66 17 C65.505 18.485 65.505 18.485 65 20 C66.485 20.495 66.485 20.495 68 21 C69.95249675 24.69946752 70 26.63532323 70 31 C76.27 30.67 82.54 30.34 89 30 C89.99 27.03 90.98 24.06 92 21 C95 18 95 18 98.875 17.5625 C101.85579015 17.69948484 103.14159365 18.07387495 105.875 19.5 C108.76376953 22.89855238 109.19990507 25.63584584 110 30 C110.66 30 111.32 30 112 30 C111.91878906 28.68644531 111.83757812 27.37289063 111.75390625 26.01953125 C111.68823462 24.2839239 111.62453597 22.5482411 111.5625 20.8125 C111.50384766 19.94818359 111.44519531 19.08386719 111.38476562 18.19335938 C111.36220703 17.35224609 111.33964844 16.51113281 111.31640625 15.64453125 C111.27974854 14.87471924 111.24309082 14.10490723 111.20532227 13.31176758 C112 11 112 11 119 6 C119 13.92 119 21.84 119 30 C119.99 30 120.98 30 122 30 C122.12955078 29.07767578 122.12955078 29.07767578 122.26171875 28.13671875 C123.40806324 21.5426087 123.40806324 21.5426087 126.25 18.9375 C129.50959992 17.82627275 131.57661557 17.51094508 135 18 C140.57894737 21.15789474 140.57894737 21.15789474 142 24 C142 28.62 142 33.24 142 38 C121.54 38 101.08 38 80 38 C80 42.95 80 47.9 80 53 C73 51 73 51 71 48 C70.5859375 45.51953125 70.5859375 45.51953125 70.375 42.8125 C70.26285156 41.46091797 70.26285156 41.46091797 70.1484375 40.08203125 C70.09945312 39.39496094 70.05046875 38.70789063 70 38 C69.45859375 38.16371094 68.9171875 38.32742188 68.359375 38.49609375 C65.59777407 39.08590587 63.07181861 39.09609308 60.25 39.0625 C59.26515625 39.05347656 58.2803125 39.04445313 57.265625 39.03515625 C56.51796875 39.02355469 55.7703125 39.01195312 55 39 C56.25541557 41.51083114 57.50063488 41.87125446 60 43 C59.34 45.31 58.68 47.62 58 50 C55.525 50.495 55.525 50.495 53 51 C52.855625 51.94875 52.71125 52.8975 52.5625 53.875 C52 57 52 57 51 59 C75.75 59.33 100.5 59.66 126 60 C124 62 124 62 121.81735039 62.24609566 C120.90477533 62.24425207 119.99220028 62.24240849 119.05197144 62.24050903 C117.48281479 62.24463303 117.48281479 62.24463303 115.88195801 62.24884033 C114.72965698 62.24164978 113.57735596 62.23445923 112.39013672 62.22705078 C110.57553452 62.22748886 110.57553452 62.22748886 108.72427368 62.22793579 C105.40208714 62.2267791 102.08014749 62.21673127 98.75800467 62.20278788 C95.28798744 62.19030678 91.81796712 62.18911209 88.34793091 62.18673706 C81.77476213 62.18051456 75.20165967 62.16409338 68.62852013 62.14403808 C60.41251573 62.11951303 52.19650061 62.1085476 43.98046875 62.09765625 C29.3202608 62.07816228 14.66019763 62.03810043 0 62 C0 41.54 0 21.08 0 0 Z " fill="#DD5358" transform="translate(299,440)"/>
<path d="M0 0 C0.91007812 0.00902344 1.82015625 0.01804687 2.7578125 0.02734375 C3.80582031 0.04474609 3.80582031 0.04474609 4.875 0.0625 C3.29869323 3.93571093 0.79752331 6.30985163 -2.1875 9.1875 C-5.58953483 12.30355765 -5.58953483 12.30355765 -8.125 16.0625 C-6.82175781 15.95808594 -6.82175781 15.95808594 -5.4921875 15.8515625 C5.10575481 15.35367259 5.10575481 15.35367259 8.6875 18.5625 C11.63950343 22.24589532 11.34553945 25.51395198 10.875 30.0625 C11.865 30.0625 12.855 30.0625 13.875 30.0625 C13.75125 28.845625 13.6275 27.62875 13.5 26.375 C13.4862396 23.79263132 13.54415773 22.50467332 15.10546875 20.41796875 C17.76467985 18.13958295 19.32817197 17.0625 22.875 17.0625 C22.875 21.6825 22.875 26.3025 22.875 31.0625 C23.865 31.0625 24.855 31.0625 25.875 31.0625 C25.7925 30.03125 25.71 29 25.625 27.9375 C25.91696308 23.4120723 27.04407717 21.54049091 29.875 18.0625 C32.77592502 16.12854999 33.77174737 15.76118059 37.0625 15.4375 C38.320625 15.31375 39.57875 15.19 40.875 15.0625 C41.205 14.0725 41.535 13.0825 41.875 12.0625 C44.515 12.0625 47.155 12.0625 49.875 12.0625 C50.37 13.5475 50.37 13.5475 50.875 15.0625 C51.55046875 15.14886719 52.2259375 15.23523438 52.921875 15.32421875 C60.26324992 16.48059139 60.26324992 16.48059139 63.4375 19.5 C67.35358247 26.48084266 65.875 29.15683779 65.875 39.0625 C41.785 39.3925 17.695 39.7225 -7.125 40.0625 C-7.455 41.7125 -7.785 43.3625 -8.125 45.0625 C-8.785 45.0625 -9.445 45.0625 -10.125 45.0625 C-10.2075 45.64 -10.29 46.2175 -10.375 46.8125 C-11.6895216 50.7560648 -14.10370533 52.55185267 -17.75 54.375 C-23.68204056 55.58337863 -29.04970851 55.34918073 -34.25 52.125 C-36.125 50.0625 -36.125 50.0625 -36.125 48.0625 C-36.785 48.0625 -37.445 48.0625 -38.125 48.0625 C-41.06490974 40.62345714 -41.52277513 31.94349073 -40.125 24.0625 C-38.33934924 20.80357081 -36.42716015 18.78081863 -33.125 17.0625 C-32.465 17.0625 -31.805 17.0625 -31.125 17.0625 C-31.10518066 17.83964355 -31.08536133 18.61678711 -31.06494141 19.41748047 C-30.96992991 22.92450691 -30.86015441 26.43091794 -30.75 29.9375 C-30.7190625 31.16082031 -30.688125 32.38414062 -30.65625 33.64453125 C-30.61757813 34.81113281 -30.57890625 35.97773438 -30.5390625 37.1796875 C-30.5076416 38.25847168 -30.4762207 39.33725586 -30.44384766 40.44873047 C-30.37823678 43.22011654 -30.37823678 43.22011654 -28.125 45.0625 C-23.47305286 45.40466235 -23.47305286 45.40466235 -19.125 44.0625 C-18.47286708 42.03786745 -18.47286708 42.03786745 -18.125 40.0625 C-20.105 40.0625 -22.085 40.0625 -24.125 40.0625 C-24.125 37.0925 -24.125 34.1225 -24.125 31.0625 C-15.215 31.0625 -6.305 31.0625 2.875 31.0625 C2.215 29.0825 1.555 27.1025 0.875 25.0625 C-7.375 24.7325 -15.625 24.4025 -24.125 24.0625 C-24.125 18.0625 -24.125 18.0625 -22.59619141 15.83666992 C-21.89671387 15.16224854 -21.19723633 14.48782715 -20.4765625 13.79296875 C-19.71859375 13.04982422 -18.960625 12.30667969 -18.1796875 11.54101562 C-16.97699219 10.40696289 -16.97699219 10.40696289 -15.75 9.25 C-14.9559375 8.47462891 -14.161875 7.69925781 -13.34375 6.90039062 C-6.13873773 -0.07870177 -6.13873773 -0.07870177 0 0 Z " fill="#0F0F0F" transform="translate(339.125,293.9375)"/>
<path d="M0 0 C1.4540625 0.0309375 1.4540625 0.0309375 2.9375 0.0625 C2.9375 0.7225 2.9375 1.3825 2.9375 2.0625 C3.61296875 2.16949219 4.2884375 2.27648437 4.984375 2.38671875 C8.54136664 3.20068641 11.82265041 4.49410959 15.1875 5.875 C15.80496094 6.12314453 16.42242187 6.37128906 17.05859375 6.62695312 C22.07003101 8.65736018 27.00644561 10.84518361 31.9375 13.0625 C32.79134277 13.44575439 33.64518555 13.82900879 34.52490234 14.22387695 C37.1839692 15.41853371 39.84212704 16.61518966 42.5 17.8125 C43.41330078 18.22371094 44.32660156 18.63492188 45.26757812 19.05859375 C47.49097227 20.05970316 49.71427806 21.06100824 51.9375 22.0625 C51.4425 23.5475 51.4425 23.5475 50.9375 25.0625 C48.94384766 25.84619141 48.94384766 25.84619141 46.3515625 26.4140625 C45.42085938 26.62546875 44.49015625 26.836875 43.53125 27.0546875 C42.5515625 27.26351562 41.571875 27.47234375 40.5625 27.6875 C38.63783149 28.11633861 36.71334412 28.5459912 34.7890625 28.9765625 C33.50249756 29.2542749 33.50249756 29.2542749 32.18994141 29.53759766 C29.78989178 30.06022137 29.78989178 30.06022137 26.9375 31.0625 C25.20954648 31.13052967 23.47914635 31.14745645 21.75 31.125 C20.84894531 31.11597656 19.94789063 31.10695313 19.01953125 31.09765625 C18.33246094 31.08605469 17.64539063 31.07445313 16.9375 31.0625 C16.9375 30.4025 16.9375 29.7425 16.9375 29.0625 C12.97233891 28.98756964 9.00745986 28.93353551 5.04174805 28.89770508 C3.04005424 28.87544542 1.03855725 28.83729854 -0.96289062 28.79882812 C-7.5008 28.74942327 -13.12273178 28.81731139 -19.17773438 31.44335938 C-22.58298503 32.56197539 -25.60833689 31.75333262 -29.0625 31.0625 C-29.0625 30.4025 -29.0625 29.7425 -29.0625 29.0625 C-29.64515625 29.02511719 -30.2278125 28.98773438 -30.828125 28.94921875 C-37.82262618 28.38833894 -44.28534638 26.87499457 -51.0625 25.0625 C-51.0625 32.6525 -51.0625 40.2425 -51.0625 48.0625 C-50.4025 48.0625 -49.7425 48.0625 -49.0625 48.0625 C-49.0625 53.6725 -49.0625 59.2825 -49.0625 65.0625 C-51.5375 65.5575 -51.5375 65.5575 -54.0625 66.0625 C-55.79472795 64.33027205 -55.19466911 62.09955122 -55.20117188 59.79052734 C-55.19666016 59.03465332 -55.19214844 58.2787793 -55.1875 57.5 C-55.18556641 56.72092285 -55.18363281 55.9418457 -55.18164062 55.13916016 C-55.1067115 44.43886481 -54.57411067 33.74917603 -54.0625 23.0625 C-52.49144961 22.27101454 -50.91969609 21.48092467 -49.34765625 20.69140625 C-48.47246338 20.25127197 -47.59727051 19.8111377 -46.69555664 19.35766602 C-43.59076018 17.83045737 -40.44874351 16.41351211 -37.27734375 15.03125 C-35.78432589 14.37821926 -34.29735838 13.7112002 -32.81640625 13.03125 C-19.77107008 7.0625 -19.77107008 7.0625 -15.0625 7.0625 C-15.0625 6.4025 -15.0625 5.7425 -15.0625 5.0625 C-14.28003906 4.78535156 -13.49757812 4.50820312 -12.69140625 4.22265625 C-11.67949219 3.86042969 -10.66757813 3.49820313 -9.625 3.125 C-8.61566406 2.76535156 -7.60632813 2.40570313 -6.56640625 2.03515625 C-1.4009083 0.02858997 -1.4009083 0.02858997 0 0 Z " fill="#070707" transform="translate(208.0625,67.9375)"/>
<path d="M0 0 C0.66644531 0.12761719 1.33289063 0.25523437 2.01953125 0.38671875 C2.01953125 1.04671875 2.01953125 1.70671875 2.01953125 2.38671875 C0.21781036 4.11984621 -1.70997456 5.65970531 -3.64453125 7.2421875 C-6.71127677 10.05764451 -9.32619004 13.18603669 -11.98046875 16.38671875 C-10.84617432 16.36315308 -10.84617432 16.36315308 -9.68896484 16.33911133 C-6.24454299 16.27653828 -2.80024101 16.2376567 0.64453125 16.19921875 C2.42923828 16.16151367 2.42923828 16.16151367 4.25 16.12304688 C15.63307875 16.02765795 15.63307875 16.02765795 20.01953125 19.38671875 C23.01953125 24.38671875 23.01953125 24.38671875 23.01953125 39.38671875 C2.55953125 39.38671875 -17.90046875 39.38671875 -38.98046875 39.38671875 C-38.98046875 29.15671875 -38.98046875 18.92671875 -38.98046875 8.38671875 C-37.00046875 6.40671875 -35.02046875 4.42671875 -32.98046875 2.38671875 C-32.32046875 2.38671875 -31.66046875 2.38671875 -30.98046875 2.38671875 C-30.98046875 11.95671875 -30.98046875 21.52671875 -30.98046875 31.38671875 C-16.13046875 31.38671875 -1.28046875 31.38671875 14.01953125 31.38671875 C13.52453125 27.92171875 13.52453125 27.92171875 13.01953125 24.38671875 C-0.51046875 24.38671875 -14.04046875 24.38671875 -27.98046875 24.38671875 C-27.98046875 18.38671875 -27.98046875 18.38671875 -26.6171875 16.65625 C-25.97394531 16.17542969 -25.33070313 15.69460937 -24.66796875 15.19921875 C-21.4433179 12.67854097 -18.7495346 10.03920238 -16.03955078 6.97070312 C-10.93242565 1.3054123 -7.67151903 -0.82616359 0 0 Z " fill="#0B0B0B" transform="translate(423.98046875,219.61328125)"/>
<path d="M0 0 C3.81413755 3.19323144 3.81413755 3.19323144 4.6875 6.25 C4.7652346 8.58203812 4.77717728 10.91839059 4.6875 13.25 C8.3175 13.25 11.9475 13.25 15.6875 13.25 C15.605 12.033125 15.5225 10.81625 15.4375 9.5625 C15.44324506 6.31653859 15.66315823 5.29147116 17.375 2.375 C20.87603988 -0.84217178 23.42466656 -1.61223635 28.125 -2.125 C32.40228563 -1.67475941 34.41057541 -0.49347175 37.6875 2.25 C39.6875 6.25 39.6875 6.25 39.6875 22.25 C28.1375 22.25 16.5875 22.25 4.6875 22.25 C4.3575 24.23 4.0275 26.21 3.6875 28.25 C1.46914828 32.03727293 -1.32401522 35.27716009 -5.30859375 37.2265625 C-7.61557708 37.75721364 -9.01420791 37.84701728 -11.3125 37.25 C-14.08214688 35.25144799 -16.26347469 32.97776494 -18.3125 30.25 C-18.3125 29.92 -18.3125 29.59 -18.3125 29.25 C-17.55324219 29.16363281 -16.79398437 29.07726562 -16.01171875 28.98828125 C-15.01785156 28.84777344 -14.02398437 28.70726562 -13 28.5625 C-12.01386719 28.43488281 -11.02773438 28.30726563 -10.01171875 28.17578125 C-6.63793225 27.3425305 -6.63793225 27.3425305 -4.3125 22.25 C-9.2625 22.25 -14.2125 22.25 -19.3125 22.25 C-19.39382187 19.68685501 -19.45314175 17.12631582 -19.5 14.5625 C-19.52513672 13.84126953 -19.55027344 13.12003906 -19.57617188 12.37695312 C-19.63939443 7.76170654 -19.13107806 4.92848323 -16.3125 1.25 C-11.90054258 -3.16195742 -5.27812624 -2.78844405 0 0 Z " fill="#0F0F0F" transform="translate(389.3125,394.75)"/>
<path d="M0 0 C0 7.92 0 15.84 0 24 C0.99 24 1.98 24 3 24 C3.08636719 23.38511719 3.17273438 22.77023437 3.26171875 22.13671875 C4.40806324 15.5426087 4.40806324 15.5426087 7.25 12.9375 C10.50959992 11.82627275 12.57661557 11.51094508 16 12 C21.57894737 15.15789474 21.57894737 15.15789474 23 18 C23 22.62 23 27.24 23 32 C2.21 32 -18.58 32 -40 32 C-40 36.29 -40 40.58 -40 45 C-44 44 -44 44 -46 41 C-46.14289203 38.22503673 -46.18737542 35.58047807 -46.125 32.8125 C-46.08375 30.234375 -46.0425 27.65625 -46 25 C-40.72 24.67 -35.44 24.34 -30 24 C-29.566875 22.576875 -29.13375 21.15375 -28.6875 19.6875 C-27.67747098 16.36883322 -26.81550957 14.12339146 -24 12 C-19.49136104 11.49096012 -17.14309447 11.40360288 -13.125 13.5 C-10.23623047 16.89855238 -9.80009493 19.63584584 -9 24 C-8.34 24 -7.68 24 -7 24 C-7.10441406 22.02966797 -7.10441406 22.02966797 -7.2109375 20.01953125 C-7.26722807 18.28390542 -7.32182683 16.54822414 -7.375 14.8125 C-7.42527344 13.94818359 -7.47554688 13.08386719 -7.52734375 12.19335938 C-7.67256544 5.87621569 -7.67256544 5.87621569 -5.67285156 3.27099609 C-1.81226852 0 -1.81226852 0 0 0 Z " fill="#F9EBEB" transform="translate(418,446)"/>
<path d="M0 0 C10.54578273 -0.04841628 21.08116231 0.03563703 31.62353516 0.31738281 C33.14947468 0.3564331 34.67553074 0.39112822 36.20166016 0.421875 C38.44467405 0.46723614 40.68704666 0.52509985 42.9296875 0.5859375 C44.24179199 0.6173584 45.55389648 0.6487793 46.90576172 0.68115234 C50 1 50 1 52 3 C51.44444444 7.55555556 51.44444444 7.55555556 50 9 C48.65732587 9.08631874 47.31025678 9.10706473 45.96484375 9.09765625 C45.15595703 9.09443359 44.34707031 9.09121094 43.51367188 9.08789062 C42.66353516 9.07951172 41.81339844 9.07113281 40.9375 9.0625 C40.08349609 9.05798828 39.22949219 9.05347656 38.34960938 9.04882812 C36.23304337 9.03700373 34.11651315 9.01906769 32 9 C31.94755127 9.9597876 31.94755127 9.9597876 31.89404297 10.93896484 C31.65423069 14.68247524 31.17098528 17.61916916 29.625 21.0625 C25.33198877 24.23115115 21.22542872 23.31103742 16 23 C16 27.95 16 32.9 16 38 C13.545625 38.020625 11.09125 38.04125 8.5625 38.0625 C7.4014978 38.07615601 7.4014978 38.07615601 6.21704102 38.09008789 C4.47778283 38.09724913 2.73854696 38.05024702 1 38 C0 37 0 37 -0.11352539 33.48999023 C-0.11336626 31.92951578 -0.10767142 30.36903607 -0.09765625 28.80859375 C-0.0962413 27.98875504 -0.09482635 27.16891632 -0.09336853 26.32423401 C-0.08775289 23.69528618 -0.07519779 21.06642227 -0.0625 18.4375 C-0.05748701 16.65950643 -0.05292376 14.88151154 -0.04882812 13.10351562 C-0.03777839 8.73564455 -0.02050331 4.36783652 0 0 Z " fill="#0A0A0A" transform="translate(369,156)"/>
<path d="M0 0 C1.00836914 -0.0319043 1.00836914 -0.0319043 2.03710938 -0.06445312 C7.1275239 -0.0992849 10.46817114 1.04148899 14.9375 3.25 C15.33366826 16.05944052 14.3411842 26.74854136 5.75 36.8125 C3.9375 38.25 3.9375 38.25 1.9375 38.25 C1.9375 38.91 1.9375 39.57 1.9375 40.25 C-1.22231461 40.75782735 -3.01781685 41.01375103 -6.0625 40.25 C-10.70413292 36.46553274 -14.24932406 31.99172381 -16.0625 26.25 C-16.0625 24.93 -16.0625 23.61 -16.0625 22.25 C-16.7225 22.25 -17.3825 22.25 -18.0625 22.25 C-19.02455088 15.87641289 -19.16905578 9.69070471 -19.0625 3.25 C-18.0725 3.25 -17.0825 3.25 -16.0625 3.25 C-16.0625 2.59 -16.0625 1.93 -16.0625 1.25 C-10.71871171 0.35936862 -5.41273178 0.08480778 0 0 Z " fill="#F6F6F6" transform="translate(210.0625,109.75)"/>
<path d="M0 0 C0.01458252 0.73637695 0.02916504 1.47275391 0.04418945 2.23144531 C0.11871111 5.57149004 0.21535873 8.91053981 0.3125 12.25 C0.33505859 13.40886719 0.35761719 14.56773437 0.38085938 15.76171875 C0.41630859 16.87675781 0.45175781 17.99179687 0.48828125 19.140625 C0.51446533 20.16704102 0.54064941 21.19345703 0.56762695 22.25097656 C1.04899886 25.31153427 1.95237052 26.72114809 4 29 C7.40080577 28.89592083 7.40080577 28.89592083 11 28 C14.97964582 23.29347823 14.39093467 18.15480795 14.26367188 12.32617188 C14.3369296 7.98854354 14.84415354 5.64507102 17.91796875 2.46484375 C21 0 21 0 23 0 C23 4.62 23 9.24 23 14 C23.99 14 24.98 14 26 14 C25.855625 12.80375 25.71125 11.6075 25.5625 10.375 C25.53734183 7.54722174 25.70549588 6.36948286 27.48828125 4.1328125 C32.26375598 0 32.26375598 0 35 0 C35 4.62 35 9.24 35 14 C35.99 14 36.98 14 38 14 C37.87625 12.80375 37.7525 11.6075 37.625 10.375 C37.5989997 6.72195825 38.31246779 5.09985064 40.875 2.5 C43.62765957 0 43.62765957 0 46 0 C46 7.59 46 15.18 46 23 C38.41 23 30.82 23 23 23 C22.67 25.31 22.34 27.62 22 30 C21.34 30 20.68 30 20 30 C19.731875 30.639375 19.46375 31.27875 19.1875 31.9375 C18 34 18 34 15 35 C15 35.66 15 36.32 15 37 C11.05127576 38.97436212 6.30383233 38.43829693 2 38 C-2.45146251 35.81473658 -5.18885145 33.0605479 -8 29 C-9.41961143 24.74116572 -9.38514448 20.65091326 -9.5 16.1875 C-9.55414063 15.29740234 -9.60828125 14.40730469 -9.6640625 13.49023438 C-9.79806553 7.03415991 -9.79806553 7.03415991 -7.4765625 4.02587891 C-2.91744677 0 -2.91744677 0 0 0 Z " fill="#111111" transform="translate(309,394)"/>
<path d="M0 0 C3.97201603 3.01325354 5.62907679 6.42731343 6.5625 11.25 C6.68625 12.796875 6.68625 12.796875 6.8125 14.375 C11.1025 14.375 15.3925 14.375 19.8125 14.375 C19.8125 13.17875 19.8125 11.9825 19.8125 10.75 C20.8125 6.375 20.8125 6.375 28.8125 0.375 C28.8125 7.635 28.8125 14.895 28.8125 22.375 C21.5525 22.705 14.2925 23.035 6.8125 23.375 C4.8325 27.83 4.8325 27.83 2.8125 32.375 C-0.37177629 36.25583673 -3.19049692 38.03508458 -8.125 38.875 C-11.47977202 38.32728212 -11.94776618 37.95620642 -14.0625 35.5 C-16.1875 32.375 -16.1875 32.375 -16.1875 30.375 C-15.50042969 30.28863281 -14.81335938 30.20226562 -14.10546875 30.11328125 C-13.20441406 29.97277344 -12.30335938 29.83226562 -11.375 29.6875 C-10.48167969 29.55988281 -9.58835937 29.43226563 -8.66796875 29.30078125 C-5.50405238 28.41356727 -5.50405238 28.41356727 -3.1875 23.375 C-8.1375 23.375 -13.0875 23.375 -18.1875 23.375 C-18.26882187 20.81185501 -18.32814175 18.25131582 -18.375 15.6875 C-18.40013672 14.96626953 -18.42527344 14.24503906 -18.45117188 13.50195312 C-18.51415582 8.90412496 -18.06554334 6.00472055 -15.1875 2.375 C-10.26300117 -0.87069241 -5.71504523 -1.63287007 0 0 Z " fill="#0B0B0B" transform="translate(352.1875,236.625)"/>
<path d="M0 0 C1.51400391 0.01740234 1.51400391 0.01740234 3.05859375 0.03515625 C4.07050781 0.04417969 5.08242188 0.05320312 6.125 0.0625 C6.90746094 0.07410156 7.68992187 0.08570313 8.49609375 0.09765625 C8.49609375 0.75765625 8.49609375 1.41765625 8.49609375 2.09765625 C9.42421875 2.49984375 9.42421875 2.49984375 10.37109375 2.91015625 C12.49609375 4.09765625 12.49609375 4.09765625 14.49609375 7.09765625 C14.63898578 9.87261952 14.68346917 12.51717818 14.62109375 15.28515625 C14.57984375 17.86328125 14.53859375 20.44140625 14.49609375 23.09765625 C4.26609375 23.09765625 -5.96390625 23.09765625 -16.50390625 23.09765625 C-16.83390625 25.40765625 -17.16390625 27.71765625 -17.50390625 30.09765625 C-19.61912825 33.77251979 -22.41985267 36.4630883 -26.06640625 38.59765625 C-29.09683416 39.21928249 -30.60943316 39.25544548 -33.50390625 38.09765625 C-35.45173439 36.21920281 -36.895355 34.3036694 -38.50390625 32.09765625 C-38.50390625 31.76765625 -38.50390625 31.43765625 -38.50390625 31.09765625 C-37.47330078 31.07638672 -37.47330078 31.07638672 -36.421875 31.0546875 C-35.07029297 30.98314453 -35.07029297 30.98314453 -33.69140625 30.91015625 C-32.35142578 30.85794922 -32.35142578 30.85794922 -30.984375 30.8046875 C-28.36251495 30.29372049 -28.36251495 30.29372049 -26.703125 28.109375 C-24.82224787 23.38573896 -25.10334277 18.72217361 -25.15234375 13.69140625 C-25.06555515 9.35197621 -24.88619364 7.5955189 -22.15234375 4.03515625 C-19.50390625 2.09765625 -19.50390625 2.09765625 -16.50390625 2.09765625 C-16.50390625 6.38765625 -16.50390625 10.67765625 -16.50390625 15.09765625 C-14.19390625 15.09765625 -11.88390625 15.09765625 -9.50390625 15.09765625 C-9.48263672 14.21013672 -9.48263672 14.21013672 -9.4609375 13.3046875 C-9.18894506 8.79843433 -8.9819291 6.67128367 -6.00390625 3.09765625 C-5.17890625 2.43765625 -4.35390625 1.77765625 -3.50390625 1.09765625 C-2.50390625 0.09765625 -2.50390625 0.09765625 0 0 Z " fill="#0B0B0B" transform="translate(432.50390625,309.90234375)"/>
<path d="M0 0 C5.61 0 11.22 0 17 0 C17 0.33 17 0.66 17 1 C12.38 1 7.76 1 3 1 C3 11.56 3 22.12 3 33 C7.62 33 12.24 33 17 33 C17 30.36 17 27.72 17 25 C17.99 25 18.98 25 20 25 C19.43708547 34.16191918 17.79203512 43.01728306 16 52 C10.33601793 52.15548186 5.30579188 51.67301585 -0.21875 50.46875 C-0.96209595 50.31337769 -1.70544189 50.15800537 -2.47131348 49.9979248 C-4.81586132 49.50609703 -7.1578827 49.00326089 -9.5 48.5 C-11.10140765 48.16202586 -12.70296907 47.82477947 -14.3046875 47.48828125 C-18.2049516 46.66724896 -22.10299186 45.83634421 -26 45 C-25.67 42.03 -25.34 39.06 -25 36 C-26.46050781 36.01160156 -27.92101562 36.02320313 -29.42578125 36.03515625 C-49.45129474 36.14528109 -49.45129474 36.14528109 -58 35 C-58 34.67 -58 34.34 -58 34 C-38.86 34 -19.72 34 0 34 C0 22.78 0 11.56 0 0 Z " fill="#EAEAEA" transform="translate(202,248)"/>
<path d="M0 0 C3.87093846 1.76569123 5.44526737 2.91574986 7.375 6.6875 C8.15246212 10.80804924 8.37860812 14.817701 8 19 C7 20 7 20 3.67358398 20.11352539 C2.19774444 20.11336629 0.72189931 20.10767314 -0.75390625 20.09765625 C-1.52935287 20.0962413 -2.3047995 20.09482635 -3.10374451 20.09336853 C-5.59003494 20.08775345 -8.0762366 20.07519846 -10.5625 20.0625 C-12.24413933 20.05748694 -13.92578006 20.0529237 -15.60742188 20.04882812 C-19.73831566 20.03777913 -23.86914276 20.02050445 -28 20 C-28.14187744 20.95156982 -28.28375488 21.90313965 -28.42993164 22.88354492 C-29.23304231 27.2739979 -30.95707811 28.8086429 -34 32 C-37.93991113 33.96995556 -42.70507464 33.45307739 -47 33 C-50.70877882 30.88069782 -52.35775744 28.86679957 -54 25 C-54.42565861 22.03004751 -54.3701846 19.06008594 -54.375 16.0625 C-54.39949219 15.26392578 -54.42398437 14.46535156 -54.44921875 13.64257812 C-54.46932186 9.59850161 -54.28649553 7.4785085 -52.1640625 3.93359375 C-50 2 -50 2 -47 2 C-46.67 9.92 -46.34 17.84 -46 26 C-43.69 26 -41.38 26 -39 26 C-36.99135641 23.6273026 -36.99135641 23.6273026 -36 21 C-37.65 21 -39.3 21 -41 21 C-41 18.69 -41 16.38 -41 14 C-27.14 14 -13.28 14 1 14 C0.34 12.02 -0.32 10.04 -1 8 C-6.61 7.67 -12.22 7.34 -18 7 C-18 6.01 -18 5.02 -18 4 C-12.12428242 -0.17828806 -7.16019526 -1.05677581 0 0 Z " fill="#FDF4F3" transform="translate(359,457)"/>
<path d="M0 0 C4.95 0 9.9 0 15 0 C15.33 0.33 15.66 0.66 16 1 C18.28808802 1.24179404 20.57465815 1.38336599 22.87109375 1.5234375 C25 2 25 2 27 5 C27.6300298 10.90189682 27.37705775 16.50305396 25 22 C23.02 22.33 21.04 22.66 19 23 C18.87625 23.969375 18.7525 24.93875 18.625 25.9375 C18.00136191 30.34815777 17.01253494 34.66477759 16 39 C14.79779797 35.46905698 15.20467651 32.87101018 15.9375 29.25 C16.13214844 28.26515625 16.32679688 27.2803125 16.52734375 26.265625 C16.68332031 25.51796875 16.83929688 24.7703125 17 24 C16.01 24 15.02 24 14 24 C14 26.64 14 29.28 14 32 C9.38 32 4.76 32 0 32 C0 21.44 0 10.88 0 0 Z " fill="#0C0C0C" transform="translate(205,249)"/>
<path d="M0 0 C0.01401855 1.10456543 0.01401855 1.10456543 0.02832031 2.23144531 C0.08204155 5.57164218 0.16568622 8.91044119 0.25 12.25 C0.26417969 13.40886719 0.27835937 14.56773437 0.29296875 15.76171875 C0.32519531 16.87675781 0.35742188 17.99179688 0.390625 19.140625 C0.41157227 20.16704102 0.43251953 21.19345703 0.45410156 22.25097656 C1.13433947 25.67650379 2.24077385 26.9114973 5 29 C8.16894287 28.9353277 10.13780404 28.6700068 12.66479492 26.70629883 C14.34150568 24.5635796 14.34437439 23.45659379 14.30078125 20.76171875 C14.30916016 19.94123047 14.31753906 19.12074219 14.32617188 18.27539062 C14.31711866 16.56174623 14.29644454 14.84812053 14.26367188 13.13476562 C14.33214926 8.52515606 14.63276958 5.79146511 17.91796875 2.39453125 C21 0 21 0 23 0 C23.0872253 4.39570794 23.14046869 8.79119271 23.1875 13.1875 C23.21263672 14.43337891 23.23777344 15.67925781 23.26367188 16.96289062 C23.27333984 18.16494141 23.28300781 19.36699219 23.29296875 20.60546875 C23.3086792 21.71043701 23.32438965 22.81540527 23.34057617 23.95385742 C22.82274565 28.58537818 20.57908079 32.04336805 17 35 C16.34 35 15.68 35 15 35 C15 35.66 15 36.32 15 37 C10.69510545 39.15244728 4.85617798 38.37967277 0.25 37.4375 C-4.05340228 34.6881041 -7.38507085 30.84478745 -9 26 C-10.78083449 10.3518848 -10.78083449 10.3518848 -7.5078125 4.19140625 C-3.30769231 0 -3.30769231 0 0 0 Z " fill="#131313" transform="translate(308,237)"/>
<path d="M0 0 C0.33 0 0.66 0 1 0 C1.12117188 0.85464844 1.24234375 1.70929688 1.3671875 2.58984375 C1.53476562 3.69457031 1.70234375 4.79929687 1.875 5.9375 C2.03742188 7.03964844 2.19984375 8.14179688 2.3671875 9.27734375 C2.57601563 10.17582031 2.78484375 11.07429688 3 12 C3.66 12.33 4.32 12.66 5 13 C5.69480469 13.35835938 6.38960938 13.71671875 7.10546875 14.0859375 C10.92283771 15.29142243 14.39048083 14.97549322 18.3125 14.625 C19.42334961 14.53992188 19.42334961 14.53992188 20.55664062 14.453125 C22.37193743 14.31258589 24.18611597 14.15772905 26 14 C26.1340625 13.20851563 26.268125 12.41703125 26.40625 11.6015625 C27.07032649 8.69185893 27.86094897 7.96079678 30 6 C30.33 5.01 30.66 4.02 31 3 C32.98 3 34.96 3 37 3 C37.12117188 3.74765625 37.24234375 4.4953125 37.3671875 5.265625 C37.61855469 6.74289062 37.61855469 6.74289062 37.875 8.25 C38.11863281 9.71179688 38.11863281 9.71179688 38.3671875 11.203125 C38.95195902 13.78767074 39.79411992 15.66863185 41 18 C41.125 20.75 41.125 20.75 41 23 C36.7688986 24.18928395 32.66075948 24.12544358 28.296875 24.09765625 C27.04019012 24.09553383 27.04019012 24.09553383 25.75811768 24.09336853 C23.08870843 24.08778197 20.4193838 24.07523194 17.75 24.0625 C15.93750121 24.05748326 14.12500111 24.05292066 12.3125 24.04882812 C7.87496752 24.03781694 3.43749809 24.02056155 -1 24 C-1.02887236 20.18751574 -1.04675492 16.3750593 -1.0625 12.5625 C-1.07087891 11.47388672 -1.07925781 10.38527344 -1.08789062 9.26367188 C-1.09111328 8.22919922 -1.09433594 7.19472656 -1.09765625 6.12890625 C-1.10289307 5.17056885 -1.10812988 4.21223145 -1.11352539 3.22485352 C-1 1 -1 1 0 0 Z " fill="#E61C26" transform="translate(302,476)"/>
<path d="M0 0 C0.66 0.33 1.32 0.66 2 1 C1.67 1.66 1.34 2.32 1 3 C1.99 3.33 2.98 3.66 4 4 C5.80266269 7.41557141 6.218934 10.16865501 6 14 C6.99 14 7.98 14 9 14 C9.04898438 15.12019531 9.09796875 16.24039062 9.1484375 17.39453125 C9.22347856 18.86721203 9.29902582 20.33986707 9.375 21.8125 C9.4059375 22.55048828 9.436875 23.28847656 9.46875 24.04882812 C9.67346148 27.81893115 9.86433827 29.79650741 12 33 C12.99 33.33 13.98 33.66 15 34 C15 29.71 15 25.42 15 21 C15.33 21 15.66 21 16 21 C16 25.95 16 30.9 16 36 C9 34 9 34 7 31 C6.5859375 28.51953125 6.5859375 28.51953125 6.375 25.8125 C6.30023438 24.91144531 6.22546875 24.01039063 6.1484375 23.08203125 C6.09945312 22.39496094 6.05046875 21.70789063 6 21 C5.18789063 21.24556641 5.18789063 21.24556641 4.359375 21.49609375 C1.59777407 22.08590587 -0.92818139 22.09609308 -3.75 22.0625 C-4.73484375 22.05347656 -5.7196875 22.04445313 -6.734375 22.03515625 C-7.48203125 22.02355469 -8.2296875 22.01195312 -9 22 C-7.74458443 24.51083114 -6.49936512 24.87125446 -4 26 C-4.66 28.31 -5.32 30.62 -6 33 C-8.475 33.495 -8.475 33.495 -11 34 C-11.2165625 35.423125 -11.2165625 35.423125 -11.4375 36.875 C-12 40 -12 40 -13 42 C-12.34 42.33 -11.68 42.66 -11 43 C-15.29 43 -19.58 43 -24 43 C-23.01 42.01 -22.02 41.02 -21 40 C-21.25314359 37.55294534 -22.17506741 35.54688435 -23.0625 33.25 C-24.20401216 29.29275783 -24.14155415 26.10507023 -24 22 C-25.98 22 -27.96 22 -30 22 C-30.103125 22.763125 -30.20625 23.52625 -30.3125 24.3125 C-31.06227192 27.24342658 -31.83473267 28.01517162 -34 30 C-34.33 30.99 -34.66 31.98 -35 33 C-36.65 33 -38.3 33 -40 33 C-39.59007812 32.56429687 -39.18015625 32.12859375 -38.7578125 31.6796875 C-38.21898437 31.08414062 -37.68015625 30.48859375 -37.125 29.875 C-36.32449219 29.00488281 -36.32449219 29.00488281 -35.5078125 28.1171875 C-33.52551185 25.55236804 -33.52551185 25.55236804 -32 20 C-14.675 19.505 -14.675 19.505 3 19 C3.28114164 11.35714827 3.28114164 11.35714827 2 4 C-0.46255685 2.54708727 -0.46255685 2.54708727 -3 2 C-2.01 1.34 -1.02 0.68 0 0 Z " fill="#DF212C" transform="translate(363,457)"/>
<path d="M0 0 C0.08742801 4.20820145 0.14053641 8.41616776 0.1875 12.625 C0.21263672 13.81480469 0.23777344 15.00460937 0.26367188 16.23046875 C0.35720732 27.39236557 0.35720732 27.39236557 -3 32 C-4.8671875 33.8984375 -4.8671875 33.8984375 -6.875 35.375 C-7.53242188 35.87773437 -8.18984375 36.38046875 -8.8671875 36.8984375 C-11.50027051 38.25838147 -13.07253603 38.41087214 -16 38 C-17.80078125 36.7578125 -17.80078125 36.7578125 -19.3125 35.125 C-19.82425781 34.59132813 -20.33601563 34.05765625 -20.86328125 33.5078125 C-22 32 -22 32 -22 30 C-21.30132812 29.89042969 -20.60265625 29.78085937 -19.8828125 29.66796875 C-18.97273438 29.50941406 -18.06265625 29.35085938 -17.125 29.1875 C-16.22007812 29.03667969 -15.31515625 28.88585937 -14.3828125 28.73046875 C-11.65587522 28.16948699 -11.65587522 28.16948699 -10 25 C-9.74740316 22.97100489 -9.74740316 22.97100489 -9.83203125 20.76171875 C-9.82494141 19.94123047 -9.81785156 19.12074219 -9.81054688 18.27539062 C-9.81184021 16.5617228 -9.83241277 14.84795211 -9.87304688 13.13476562 C-9.7718739 6.97284962 -9.7718739 6.97284962 -7.45849609 4.05712891 C-2.86041667 0 -2.86041667 0 0 0 Z " fill="#080808" transform="translate(367,394)"/>
<path d="M0 0 C0 12.54 0 25.08 0 38 C-2.64 38 -5.28 38 -8 38 C-8.14898157 33.55270923 -8.25750548 29.10676157 -8.32958984 24.65771484 C-8.35965471 23.1463896 -8.40052013 21.63523729 -8.45263672 20.12451172 C-8.87377767 7.59763279 -8.87377767 7.59763279 -6.70800781 3.63769531 C-4.66935382 1.52964033 -3.03481204 0 0 0 Z " fill="#0D0D0D" transform="translate(440,379)"/>
<path d="M0 0 C10.89 0 21.78 0 33 0 C33 0.99 33 1.98 33 3 C26.73 3 20.46 3 14 3 C13.8453125 5.6296875 13.8453125 5.6296875 13.6875 8.3125 C13.38741722 13.41390728 13.38741722 13.41390728 11.78125 15.84375 C9.35837123 17.41649587 7.67498942 17.29902556 4.8125 17.1875 C3.224375 17.125625 1.63625 17.06375 0 17 C0 11.39 0 5.78 0 0 Z " fill="#E6E6E6" transform="translate(385,160)"/>
<path d="M0 0 C0.33 7.92 0.66 15.84 1 24 C3.31 24 5.62 24 8 24 C10.00864359 21.6273026 10.00864359 21.6273026 11 19 C9.35 19 7.7 19 6 19 C6 18.67 6 18.34 6 18 C7.98 18 9.96 18 12 18 C11.98839844 18.69867188 11.97679687 19.39734375 11.96484375 20.1171875 C11.95582031 21.02726562 11.94679688 21.93734375 11.9375 22.875 C11.92589844 23.77992188 11.91429687 24.68484375 11.90234375 25.6171875 C11.83750743 28.0168585 11.83750743 28.0168585 13 30 C9.06008887 31.96995556 4.29492536 31.45307739 0 31 C-3.70877882 28.88069782 -5.35775744 26.86679957 -7 23 C-7.42565861 20.03004751 -7.3701846 17.06008594 -7.375 14.0625 C-7.39949219 13.26392578 -7.42398437 12.46535156 -7.44921875 11.64257812 C-7.46932186 7.59850161 -7.28649553 5.4785085 -5.1640625 1.93359375 C-3 0 -3 0 0 0 Z " fill="#F9DEE0" transform="translate(312,459)"/>
<path d="M0 0 C0.66 0 1.32 0 2 0 C2.33797951 6.53427048 1.54131412 10.31509452 -2.25 15.8125 C-5.94673753 18.32100047 -9.9165741 18.16994916 -14.1875 17.5 C-17.94183243 15.49768937 -19.67172215 12.94666466 -21 9 C-21.29941769 6.23280101 -21.19622064 3.79614406 -21 1 C-16.125 2.875 -16.125 2.875 -15 4 C-7.7592584 4.82867757 -7.7592584 4.82867757 -1.4375 2 C-0.963125 1.34 -0.48875 0.68 0 0 Z " fill="#F3F3F3" transform="translate(218,150)"/>
<path d="M0 0 C1.05960937 0.00676758 1.05960937 0.00676758 2.140625 0.01367188 C3.88545275 0.02546125 5.630237 0.04339676 7.375 0.0625 C7.375 2.7025 7.375 5.3425 7.375 8.0625 C6.63894531 8.09988281 5.90289062 8.13726562 5.14453125 8.17578125 C-2.49030538 8.33139508 -2.49030538 8.33139508 -8.625 12.0625 C-9.33427375 15.7279834 -9.55537314 19.3342982 -9.625 23.0625 C-15.51774497 20.1843593 -15.51774497 20.1843593 -17.625 17.0625 C-18.05334387 13.50112667 -17.75129273 10.4681947 -16.625 7.0625 C-11.85942528 1.14702292 -7.33572141 -0.08797452 0 0 Z " fill="#101010" transform="translate(438.625,365.9375)"/>
<path d="M0 0 C0.99 0.33 1.98 0.66 3 1 C3.1953125 3.05078125 3.390625 5.1015625 3.5859375 7.15234375 C3.72257812 7.76207031 3.85921875 8.37179687 4 9 C4.66 9.33 5.32 9.66 6 10 C6 10.66 6 11.32 6 12 C4.02 12.99 4.02 12.99 2 14 C2 14.33 2 14.66 2 15 C-2.95 15.33 -7.9 15.66 -13 16 C-13.33 20.29 -13.66 24.58 -14 29 C-18 28 -18 28 -20 25 C-20.14289203 22.22503673 -20.18737542 19.58047807 -20.125 16.8125 C-20.08375 14.234375 -20.0425 11.65625 -20 9 C-12.08 8.505 -12.08 8.505 -4 8 C-3.34 5.69 -2.68 3.38 -2 1 C-1.34 0.67 -0.68 0.34 0 0 Z " fill="#FDFAFB" transform="translate(392,462)"/>
<path d="M0 0 C8.3984375 -0.1953125 8.3984375 -0.1953125 11 0 C13 2 13 2 13.23046875 4.49609375 C13.20919922 5.95208984 13.20919922 5.95208984 13.1875 7.4375 C13.17783203 8.88962891 13.17783203 8.88962891 13.16796875 10.37109375 C13 13 13 13 12 16 C11.34 16 10.68 16 10 16 C10 16.66 10 17.32 10 18 C6.7 18 3.4 18 0 18 C0 12.06 0 6.12 0 0 Z " fill="#E8E8E8" transform="translate(219,252)"/>
<path d="M0 0 C1.14726562 0.01289063 2.29453125 0.02578125 3.4765625 0.0390625 C6.375 0.375 6.375 0.375 8.375 2.375 C8.5 5 8.5 5 8.375 7.375 C7.715 7.375 7.055 7.375 6.375 7.375 C6.375 9.685 6.375 11.995 6.375 14.375 C5.69953125 14.27960938 5.0240625 14.18421875 4.328125 14.0859375 C3.43609375 13.97507812 2.5440625 13.86421875 1.625 13.75 C0.74328125 13.63398438 -0.1384375 13.51796875 -1.046875 13.3984375 C-3.9033248 13.37246977 -5.24110474 13.85137999 -7.625 15.375 C-8.285 16.035 -8.945 16.695 -9.625 17.375 C-9.955 16.055 -10.285 14.735 -10.625 13.375 C-9.965 13.375 -9.305 13.375 -8.625 13.375 C-8.81578125 12.77171875 -9.0065625 12.1684375 -9.203125 11.546875 C-9.42484375 10.74765625 -9.6465625 9.9484375 -9.875 9.125 C-10.10703125 8.33609375 -10.3390625 7.5471875 -10.578125 6.734375 C-10.625 4.375 -10.625 4.375 -9.0859375 2.1015625 C-5.88166919 -0.14651146 -3.88252813 -0.09640589 0 0 Z " fill="#D6373B" transform="translate(431.625,445.625)"/>
<path d="M0 0 C3.87093846 1.76569123 5.44526737 2.91574986 7.375 6.6875 C8.15246212 10.80804924 8.37860812 14.817701 8 19 C7 20 7 20 3.76538086 20.11352539 C2.33185874 20.11336631 0.89833088 20.10767407 -0.53515625 20.09765625 C-1.66503212 20.09553383 -1.66503212 20.09553383 -2.81773376 20.09336853 C-5.2326956 20.08775376 -7.64756601 20.07519883 -10.0625 20.0625 C-11.69596221 20.0574869 -13.32942586 20.05292366 -14.96289062 20.04882812 C-18.97529585 20.03777954 -22.98763241 20.02050506 -27 20 C-27 19.67 -27 19.34 -27 19 C-16.11 19 -5.22 19 6 19 C6.25902932 8.83223972 6.25902932 8.83223972 3 6 C2.01 6.99 1.02 7.98 0 9 C-0.33 8.67 -0.66 8.34 -1 8 C-3.85877909 7.76298761 -6.69883297 7.57780818 -9.5625 7.4375 C-10.36880859 7.39431641 -11.17511719 7.35113281 -12.00585938 7.30664062 C-14.00368805 7.20024738 -16.0018207 7.09959112 -18 7 C-18 6.01 -18 5.02 -18 4 C-12.12428242 -0.17828806 -7.16019526 -1.05677581 0 0 Z " fill="#FBDEDE" transform="translate(359,457)"/>
<path d="M0 0 C1.98 0 3.96 0 6 0 C6 0.66 6 1.32 6 2 C7.258125 1.938125 8.51625 1.87625 9.8125 1.8125 C13.70200387 1.81939628 13.70200387 1.81939628 16.0625 3.25 C17 5 17 5 16.9375 7 C15.76297794 9.50564706 14.19020114 10.35734915 12 12 C11.20376178 14.09415804 11.20376178 14.09415804 11 16 C9.1875 16.6875 9.1875 16.6875 7 17 C5.25 15.6875 5.25 15.6875 4 14 C4 13.34 4 12.68 4 12 C3.01 11.67 2.02 11.34 1 11 C-0.28317892 7.15046324 -0.06643637 4.05261865 0 0 Z " fill="#D53136" transform="translate(339,479)"/>
<path d="M0 0 C9.24 0 18.48 0 28 0 C28 3.96 28 7.92 28 12 C23.125 7.375 23.125 7.375 22 4 C20.783125 4.020625 19.56625 4.04125 18.3125 4.0625 C15.08022678 4.06824116 12.15065259 3.78766315 9 3 C8.34 4.32 7.68 5.64 7 7 C6.34 7 5.68 7 5 7 C5.66 9.97 6.32 12.94 7 16 C6.34 16 5.68 16 5 16 C5.20625 16.53625 5.4125 17.0725 5.625 17.625 C6.1314747 20.83267308 5.15400225 23.01317066 4 26 C3.67 26 3.34 26 3 26 C3 18.08 3 10.16 3 2 C2.01 1.67 1.02 1.34 0 1 C0 0.67 0 0.34 0 0 Z " fill="#EA1B20" transform="translate(416,443)"/>
<path d="M0 0 C1.485 0.99 1.485 0.99 3 2 C3.34057617 4.33837891 3.34057617 4.33837891 3.29296875 7.2265625 C3.28330078 8.2578125 3.27363281 9.2890625 3.26367188 10.3515625 C3.23853516 11.43179688 3.21339844 12.51203125 3.1875 13.625 C3.17396484 14.71296875 3.16042969 15.8009375 3.14648438 16.921875 C3.11104754 19.61507409 3.06164331 22.30729374 3 25 C3.66 25 4.32 25 5 25 C5 30.61 5 36.22 5 42 C2.525 42.495 2.525 42.495 0 43 C-1.73222795 41.26777205 -1.13216911 39.03705122 -1.13867188 36.72802734 C-1.13416016 35.97215332 -1.12964844 35.2162793 -1.125 34.4375 C-1.12306641 33.65842285 -1.12113281 32.8793457 -1.11914062 32.07666016 C-1.0442115 21.37636481 -0.51161067 10.68667603 0 0 Z " fill="#202020" transform="translate(154,91)"/>
<path d="M0 0 C0.66 0.33 1.32 0.66 2 1 C1.67 1.66 1.34 2.32 1 3 C1.99 3.33 2.98 3.66 4 4 C5.80266269 7.41557141 6.218934 10.16865501 6 14 C6.99 14 7.98 14 9 14 C9.04898438 15.12019531 9.09796875 16.24039062 9.1484375 17.39453125 C9.22347856 18.86721203 9.29902582 20.33986707 9.375 21.8125 C9.4059375 22.55048828 9.436875 23.28847656 9.46875 24.04882812 C9.67346148 27.81893115 9.86433827 29.79650741 12 33 C12.99 33.33 13.98 33.66 15 34 C15 29.71 15 25.42 15 21 C15.33 21 15.66 21 16 21 C16 25.95 16 30.9 16 36 C9 34 9 34 7 31 C6.67 27.7 6.34 24.4 6 21 C-6.54 21 -19.08 21 -32 21 C-32 20.67 -32 20.34 -32 20 C-14.675 19.505 -14.675 19.505 3 19 C3.28114164 11.35714827 3.28114164 11.35714827 2 4 C-0.46255685 2.54708727 -0.46255685 2.54708727 -3 2 C-2.01 1.34 -1.02 0.68 0 0 Z " fill="#DC4C4F" transform="translate(363,457)"/>
<path d="M0 0 C20.46 0 40.92 0 62 0 C61.67 0.66 61.34 1.32 61 2 C41.53 2 22.06 2 2 2 C2 5.63 2 9.26 2 13 C1.34 13 0.68 13 0 13 C0 8.71 0 4.42 0 0 Z " fill="#C61D24" transform="translate(379,478)"/>
<path d="M0 0 C1.9375 0.875 1.9375 0.875 3.9375 3.875 C4.515 3.58625 5.0925 3.2975 5.6875 3 C7.77083333 1.95833333 9.85416667 0.91666667 11.9375 -0.125 C14 1.625 14 1.625 15.9375 3.875 C15.75996387 6.89311422 15.10014785 7.71235215 12.9375 9.875 C9.55758426 9.5192194 6.89461562 8.51784201 3.9375 6.875 C2.9475 8.195 1.9575 9.515 0.9375 10.875 C-1.55611571 9.67118552 -3.74393083 8.42071278 -6.0625 6.875 C-5.65566505 4.51535727 -5.16435661 3.01565912 -3.75 1.0625 C-2.0625 -0.125 -2.0625 -0.125 0 0 Z " fill="#161616" transform="translate(338.0625,380.125)"/>
<path d="M0 0 C0.33 0 0.66 0 1 0 C0.8569516 3.95843897 0.71042641 7.91674037 0.5625 11.875 C0.51883301 13.05054443 0.47516602 14.22608887 0.43017578 15.43725586 C0.13123523 23.24215739 -0.2400537 31.0375984 -0.78295898 38.82958984 C-0.89308868 40.55105857 -0.95252146 42.27566567 -1 44 C0.80394875 45.80394875 3.56677799 45.23705789 6.00390625 45.31640625 C7.82631836 45.37924805 7.82631836 45.37924805 9.68554688 45.44335938 C11.60463867 45.50233398 11.60463867 45.50233398 13.5625 45.5625 C14.84576172 45.60568359 16.12902344 45.64886719 17.45117188 45.69335938 C20.63399853 45.799848 23.81690674 45.90185962 27 46 C27 46.33 27 46.66 27 47 C22.72953289 47.19656362 18.45861919 47.38070249 14.1875 47.5625 C12.97255859 47.61857422 11.75761719 47.67464844 10.50585938 47.73242188 C8.76079102 47.80493164 8.76079102 47.80493164 6.98046875 47.87890625 C5.90692139 47.9260376 4.83337402 47.97316895 3.72729492 48.02172852 C1 48 1 48 -2 47 C-4.12795076 43.80807386 -4.23213068 43.24228606 -4.046875 39.6328125 C-4.005625 38.7564917 -3.964375 37.8801709 -3.921875 36.97729492 C-3.86515625 36.0360376 -3.8084375 35.09478027 -3.75 34.125 C-3.6984375 33.15860596 -3.646875 32.19221191 -3.59375 31.1965332 C-3.19362657 24.18243767 -2.64425743 17.18316318 -2 10.1875 C-1.91717773 9.28080566 -1.83435547 8.37411133 -1.74902344 7.43994141 C-1.12552867 1.12552867 -1.12552867 1.12552867 0 0 Z " fill="#D0D0D0" transform="translate(158,200)"/>
<path d="M0 0 C0.9590625 0.00064453 1.918125 0.00128906 2.90625 0.00195312 C8.03820718 0.03367539 12.9426672 0.30949083 18 1.1875 C18 1.8475 18 2.5075 18 3.1875 C20.64 3.1875 23.28 3.1875 26 3.1875 C25.67 3.8475 25.34 4.5075 25 5.1875 C24.34 5.1875 23.68 5.1875 23 5.1875 C22.67 5.8475 22.34 6.5075 22 7.1875 C21.49243164 6.97383789 20.98486328 6.76017578 20.46191406 6.54003906 C13.81518652 4.00724871 7.80708885 3.79844406 0.75 3.9375 C-0.84328125 3.94523437 -0.84328125 3.94523437 -2.46875 3.953125 C-7.12802458 3.99995188 -11.44073789 4.15945129 -16 5.1875 C-16 4.5275 -16 3.8675 -16 3.1875 C-16.66 2.8575 -17.32 2.5275 -18 2.1875 C-11.92732868 0.05363077 -6.40109914 -0.08173446 0 0 Z " fill="#CDCDCD" transform="translate(207,95.8125)"/>
<path d="M0 0 C4.66307014 -0.04937279 9.32598873 -0.08570627 13.98925781 -0.10986328 C15.57619883 -0.11993188 17.16312125 -0.13358767 18.75 -0.15087891 C21.02869247 -0.17509001 23.30714006 -0.18647422 25.5859375 -0.1953125 C26.29744965 -0.20563507 27.00896179 -0.21595764 27.74203491 -0.22659302 C29.49631665 -0.22699422 31.24996709 -0.12202209 33 0 C33.66 0.66 34.32 1.32 35 2 C34.44444444 6.55555556 34.44444444 6.55555556 33 8 C30.13732433 8.07325168 27.299281 8.09238205 24.4375 8.0625 C23.63119141 8.05798828 22.82488281 8.05347656 21.99414062 8.04882812 C19.99606244 8.03700518 17.99802217 8.01906914 16 8 C16 7.67 16 7.34 16 7 C23.92 6.505 23.92 6.505 32 6 C32 5.01 32 4.02 32 3 C21.44 3 10.88 3 0 3 C0 2.01 0 1.02 0 0 Z " fill="#535353" transform="translate(386,157)"/>
<path d="M0 0 C0.33 0.66 0.66 1.32 1 2 C2.20398438 1.97679687 3.40796875 1.95359375 4.6484375 1.9296875 C6.22395215 1.91093137 7.79947348 1.89273101 9.375 1.875 C10.1690625 1.85824219 10.963125 1.84148437 11.78125 1.82421875 C13.85492015 1.80664527 15.92883241 1.89664832 18 2 C20 4 20 4 20 9 C6.14 9 -7.72 9 -22 9 C-22 8.67 -22 8.34 -22 8 C-9.79 8 2.42 8 15 8 C15 7.01 15 6.02 15 5 C8.07 4.505 8.07 4.505 1 4 C0.67 2.68 0.34 1.36 0 0 Z " fill="#E15258" transform="translate(340,462)"/>
<path d="M0 0 C0.68707031 0.29261719 1.37414062 0.58523438 2.08203125 0.88671875 C-1.47824839 5.19653095 -5.18778834 9.33763874 -9.04296875 13.38671875 C-9.87054688 14.26328125 -10.698125 15.13984375 -11.55078125 16.04296875 C-13.91796875 17.88671875 -13.91796875 17.88671875 -16.22265625 17.66796875 C-16.78210938 17.41015625 -17.3415625 17.15234375 -17.91796875 16.88671875 C-15.89829686 12.46962486 -12.97690831 9.50552849 -9.60546875 6.07421875 C-8.75178711 5.15866211 -8.75178711 5.15866211 -7.88085938 4.22460938 C-3.59539253 -0.13958017 -3.59539253 -0.13958017 0 0 Z " fill="#E2E2E2" transform="translate(329.91796875,294.11328125)"/>
<path d="M0 0 C3 1 3 1 4 3 C4.46787372 10.67863338 3.74647709 18.36193975 3 26 C2.34 26 1.68 26 1 26 C0.96261719 25.05898438 0.92523438 24.11796875 0.88671875 23.1484375 C0.82097656 21.90320313 0.75523437 20.65796875 0.6875 19.375 C0.62949219 18.14523437 0.57148438 16.91546875 0.51171875 15.6484375 C-0.02180903 11.84450662 -1.21075683 9.36087568 -3 6 C-2.8125 3.1875 -2.8125 3.1875 -2 1 C-1.34 0.67 -0.68 0.34 0 0 Z " fill="#E32630" transform="translate(440,452)"/>
<path d="M0 0 C0.05783842 4.29161047 0.0935412 8.58312145 0.125 12.875 C0.14175781 14.09832031 0.15851563 15.32164062 0.17578125 16.58203125 C0.18222656 17.74863281 0.18867188 18.91523438 0.1953125 20.1171875 C0.20578613 21.19597168 0.21625977 22.27475586 0.22705078 23.38623047 C0 26 0 26 -2 28 C-2.33 20.74 -2.66 13.48 -3 6 C-4.98 6.99 -4.98 6.99 -7 8 C-7.33 13.61 -7.66 19.22 -8 25 C-8.33 25 -8.66 25 -9 25 C-9.18991128 21.9553906 -9.32801567 18.92268634 -9.4375 15.875 C-9.49615234 15.0190625 -9.55480469 14.163125 -9.61523438 13.28125 C-9.78408494 7.00965744 -9.78408494 7.00965744 -7.48095703 4.04394531 C-2.89615484 0 -2.89615484 0 0 0 Z " fill="#3C3C3C" transform="translate(367,394)"/>
<path d="M0 0 C0.66 0.33 1.32 0.66 2 1 C1.67 1.66 1.34 2.32 1 3 C0.84855186 5.95032632 0.76857595 8.86124618 0.75 11.8125 C0.729375 12.62009766 0.70875 13.42769531 0.6875 14.25976562 C0.6564405 19.00022182 0.88261489 22.17610472 4 26 C7.28491373 28.18994248 8.83095639 28.35277339 12.6875 28.625 C13.68136719 28.69976562 14.67523438 28.77453125 15.69921875 28.8515625 C16.45847656 28.90054687 17.21773438 28.94953125 18 29 C18 29.33 18 29.66 18 30 C14.04 30.33 10.08 30.66 6 31 C6 30.34 6 29.68 6 29 C3.69 29 1.38 29 -1 29 C-2.3300103 20.02243049 -2.08788039 11.05168034 -2 2 C-1.34 2 -0.68 2 0 2 C0 1.34 0 0.68 0 0 Z " fill="#DA454B" transform="translate(305,461)"/>
<path d="M0 0 C2.88437779 1.29299694 4.87219421 2.65941363 7 5 C5.84826645 7.46800047 4.95216435 9.04783565 3 11 C-0.01305957 10.61121812 -1.39685311 9.73543126 -4 8 C-3.50168276 4.31245243 -2.89932357 2.39509338 0 0 Z " fill="#1F1F1F" transform="translate(314,232)"/>
<path d="M0 0 C2.45849212 0.23791859 3.81202615 0.863881 5.8125 2.3125 C7 4 7 4 6.875 6 C5.90943569 8.20700414 4.80627247 9.42932829 3 11 C0.53199953 9.84826645 -1.04783565 8.95216435 -3 7 C-2.67028521 3.70285207 -2.3773161 2.3773161 0 0 Z " fill="#1B1B1B" transform="translate(354,297)"/>
<path d="M0 0 C2.4866001 0.24063872 3.78353207 0.82991806 5.75 2.375 C7 4 7 4 7 7 C5 9.1875 5 9.1875 3 11 C0.11562221 9.70700306 -1.87219421 8.34058637 -4 6 C-2.84826645 3.53199953 -1.95216435 1.95216435 0 0 Z " fill="#171717" transform="translate(361,380)"/>
<path d="M0 0 C2.0625 0.1875 2.0625 0.1875 4 1 C4.33 1.99 4.66 2.98 5 4 C5.66 4 6.32 4 7 4 C5.71480435 6.86697492 4.42870746 8.97607712 2 11 C1.34 11 0.68 11 0 11 C-1.38232443 9.37373596 -2.71937515 7.7074998 -4 6 C-2.84826645 3.53199953 -1.95216435 1.95216435 0 0 Z " fill="#1B1B1B" transform="translate(434,297)"/>
<path d="M0 0 C0.33 0.66 0.66 1.32 1 2 C-4.28 2 -9.56 2 -15 2 C-14.67 6.29 -14.34 10.58 -14 15 C-13.01 15 -12.02 15 -11 15 C-11 12.69 -11 10.38 -11 8 C-10.67 8 -10.34 8 -10 8 C-10 12.29 -10 16.58 -10 21 C-14 20 -14 20 -16 17 C-16.14289203 14.22503673 -16.18737542 11.58047807 -16.125 8.8125 C-16.08375 6.234375 -16.0425 3.65625 -16 1 C-8.08 0.505 -8.08 0.505 0 0 Z " fill="#FDDDDC" transform="translate(388,470)"/>
<path d="M0 0 C0 7.92 0 15.84 0 24 C-0.33 24 -0.66 24 -1 24 C-1.33 17.4 -1.66 10.8 -2 4 C-2.33 4.99 -2.66 5.98 -3 7 C-3.99 7 -4.98 7 -6 7 C-6 12.94 -6 18.88 -6 25 C-7.65 24.67 -9.3 24.34 -11 24 C-11 22.02 -11 20.04 -11 18 C-9 21.75 -9 21.75 -9 24 C-8.34 24 -7.68 24 -7 24 C-7.06960938 22.68644531 -7.13921875 21.37289063 -7.2109375 20.01953125 C-7.26722807 18.28390542 -7.32182683 16.54822414 -7.375 14.8125 C-7.42527344 13.94818359 -7.47554688 13.08386719 -7.52734375 12.19335938 C-7.67256544 5.87621569 -7.67256544 5.87621569 -5.67285156 3.27099609 C-1.81226852 0 -1.81226852 0 0 0 Z " fill="#F3C5C8" transform="translate(418,446)"/>
<path d="M0 0 C0.99 0 1.98 0 3 0 C4.75 1.75 4.75 1.75 6 4 C5.84164571 6.6128457 5.22064124 7.73139327 3.5625 9.75 C2 11 2 11 0 11 C-1.38232443 9.37373596 -2.71937515 7.7074998 -4 6 C-2.84826645 3.53199953 -1.95216435 1.95216435 0 0 Z " fill="#171717" transform="translate(342,371)"/>
<path d="M0 0 C2.45327682 1.18706943 3.47654 2.673012 4.9375 4.9375 C3.2875 6.5875 1.6375 8.2375 -0.0625 9.9375 C-2.53050047 8.78576645 -4.11033565 7.88966435 -6.0625 5.9375 C-6.0625 4.9475 -6.0625 3.9575 -6.0625 2.9375 C-4.03480622 0.90980622 -2.91872293 -0.08844615 0 0 Z " fill="#111111" transform="translate(376.0625,224.0625)"/>
<path d="M0 0 C0.33 0 0.66 0 1 0 C1.07347656 1.68029297 1.07347656 1.68029297 1.1484375 3.39453125 C1.22347856 4.86721203 1.29902582 6.33986707 1.375 7.8125 C1.4059375 8.55048828 1.436875 9.28847656 1.46875 10.04882812 C1.67346148 13.81893115 1.86433827 15.79650741 4 19 C4.99 19.33 5.98 19.66 7 20 C7 15.71 7 11.42 7 7 C7.33 7 7.66 7 8 7 C8 11.95 8 16.9 8 22 C1 20 1 20 -1 17 C-1.16864355 14.4360464 -1.2334991 11.99650257 -1.1875 9.4375 C-1.1865332 8.40979492 -1.1865332 8.40979492 -1.18554688 7.36132812 C-1.14067963 2.28135927 -1.14067963 2.28135927 0 0 Z " fill="#E3585E" transform="translate(371,471)"/>
<path d="M0 0 C11.22 0 22.44 0 34 0 C34 0.33 34 0.66 34 1 C23.44 1 12.88 1 2 1 C1.67 2.65 1.34 4.3 1 6 C-0.5 7.625 -0.5 7.625 -2 9 C-2.33 9.99 -2.66 10.98 -3 12 C-4.65 12 -6.3 12 -8 12 C-7.59007812 11.55269531 -7.18015625 11.10539062 -6.7578125 10.64453125 C-6.21898437 10.03996094 -5.68015625 9.43539063 -5.125 8.8125 C-4.32449219 7.92498047 -4.32449219 7.92498047 -3.5078125 7.01953125 C-1.61904659 4.67082069 -1.61904659 4.67082069 0 0 Z " fill="#CC1A21" transform="translate(331,478)"/>
<path d="M0 0 C0.66 0 1.32 0 2 0 C2 2.31 2 4.62 2 7 C3.65 7 5.3 7 7 7 C6.67 8.32 6.34 9.64 6 11 C2.71303767 11.79953138 1.28976808 12.09658936 -2 11 C-1.85957123 9.35369672 -1.71250671 7.70795821 -1.5625 6.0625 C-1.48128906 5.14597656 -1.40007812 4.22945313 -1.31640625 3.28515625 C-1 1 -1 1 0 0 Z " fill="#D11F26" transform="translate(316,471)"/>
<path d="M0 0 C2.51570636 0.97382182 3.73944098 1.46151135 4.9375 3.9375 C5 6 5 6 3.875 7.8125 C2 9 2 9 -0.6875 8.6875 C-1.450625 8.460625 -2.21375 8.23375 -3 8 C-3.75 6.25 -3.75 6.25 -4 4 C-2.0625 1.75 -2.0625 1.75 0 0 Z " fill="#0C0C0C" transform="translate(349,381)"/>
<path d="M0 0 C0 0.66 0 1.32 0 2 C2.64 2 5.28 2 8 2 C7.67 2.66 7.34 3.32 7 4 C6.34 4 5.68 4 5 4 C4.67 4.66 4.34 5.32 4 6 C2.865625 5.525625 1.73125 5.05125 0.5625 4.5625 C-6.6814694 2.09349435 -14.42091677 2.25234605 -22 2 C-22 1.67 -22 1.34 -22 1 C-19.6460153 0.83034345 -17.29186616 0.6642065 -14.9375 0.5 C-13.62652344 0.4071875 -12.31554687 0.314375 -10.96484375 0.21875 C-7.29924005 0.0165098 -3.67009048 -0.0381804 0 0 Z " fill="#BEBEBE" transform="translate(225,97)"/>
<path d="M0 0 C4.55555556 0.55555556 4.55555556 0.55555556 6 2 C6.04063832 3.66617115 6.042721 5.33388095 6 7 C3.36 7 0.72 7 -2 7 C-2.125 4.625 -2.125 4.625 -2 2 C-1.34 1.34 -0.68 0.68 0 0 Z " fill="#CFCFCF" transform="translate(415,401)"/>
<path d="M0 0 C0.33 0 0.66 0 1 0 C1 4.29 1 8.58 1 13 C0.01 13.33 -0.98 13.66 -2 14 C-4.4294516 10.3558226 -4.16179575 8.28758728 -4 4 C-3.01 4 -2.02 4 -1 4 C-0.67 2.68 -0.34 1.36 0 0 Z " fill="#FCFBFE" transform="translate(416,449)"/>
<path d="M0 0 C0.33 0 0.66 0 1 0 C1.99 4.29 2.98 8.58 4 13 C3.34 13 2.68 13 2 13 C2.20625 13.53625 2.4125 14.0725 2.625 14.625 C3.1314747 17.83267308 2.15400225 20.01317066 1 23 C0.67 23 0.34 23 0 23 C0 15.41 0 7.82 0 0 Z " fill="#DF131D" transform="translate(419,446)"/>
<path d="M0 0 C2.5 0.125 2.5 0.125 3.5 1.125 C3.54080783 3.12458364 3.54254356 5.12545254 3.5 7.125 C1.19 7.125 -1.12 7.125 -3.5 7.125 C-3.54254356 5.12545254 -3.54080783 3.12458364 -3.5 1.125 C-2.5 0.125 -2.5 0.125 0 0 Z " fill="#DFDFDF" transform="translate(377.5,317.875)"/>
<path d="M0 0 C0.99 0.33 1.98 0.66 3 1 C0.54976242 3.50804718 -1.91147598 6.0050076 -4.375 8.5 C-5.42300781 9.57314453 -5.42300781 9.57314453 -6.4921875 10.66796875 C-7.1625 11.34472656 -7.8328125 12.02148438 -8.5234375 12.71875 C-9.14138184 13.34716797 -9.75932617 13.97558594 -10.39599609 14.62304688 C-12 16 -12 16 -14 16 C-12.34136495 11.67495164 -9.128959 8.90581175 -5.875 5.75 C-5.31167969 5.19570313 -4.74835938 4.64140625 -4.16796875 4.0703125 C-2.78313972 2.70895515 -1.39216796 1.35385141 0 0 Z " fill="#393939" transform="translate(327,294)"/>
<path d="M0 0 C0.33 0 0.66 0 1 0 C1 5.61 1 11.22 1 17 C0.34 17 -0.32 17 -1 17 C-1.25394531 16.38511719 -1.50789063 15.77023437 -1.76953125 15.13671875 C-2.28580078 13.92435547 -2.28580078 13.92435547 -2.8125 12.6875 C-3.14894531 11.88699219 -3.48539062 11.08648437 -3.83203125 10.26171875 C-4.98200704 8.03484255 -6.13626961 6.65012233 -8 5 C-5.525 5.495 -5.525 5.495 -3 6 C-2.67 6.99 -2.34 7.98 -2 9 C-1.34 9 -0.68 9 0 9 C0 6.03 0 3.06 0 0 Z " fill="#CD373F" transform="translate(410,453)"/>
<path d="M0 0 C2.375 -0.125 2.375 -0.125 5 0 C7 2 7 2 7.125 4.625 C7.08375 5.40875 7.0425 6.1925 7 7 C5.00045254 7.04254356 2.99958364 7.04080783 1 7 C0 6 0 6 -0.0625 2.9375 C-0.041875 1.968125 -0.02125 0.99875 0 0 Z " fill="#EAEAEA" transform="translate(389,318)"/>
<path d="M0 0 C1.67542976 0.28604898 3.34385343 0.61781233 5 1 C5.33 2.98 5.66 4.96 6 7 C3.69 7 1.38 7 -1 7 C-1.04254356 5.00045254 -1.04080783 2.99958364 -1 1 C-0.67 0.67 -0.34 0.34 0 0 Z " fill="#DADADA" transform="translate(380,401)"/>
<path d="M0 0 C1.9375 0.75 1.9375 0.75 4 2 C4.875 4 4.875 4 5 6 C4.34 6.66 3.68 7.32 3 8 C1 7.875 1 7.875 -1 7 C-2.25 4.9375 -2.25 4.9375 -3 3 C-2.01 2.01 -1.02 1.02 0 0 Z " fill="#FADAD5" transform="translate(425,447)"/>
<path d="M0 0 C3.53571429 0.53571429 3.53571429 0.53571429 5 2 C5.04063832 3.66617115 5.042721 5.33388095 5 7 C2.69 7 0.38 7 -2 7 C-2.125 4.625 -2.125 4.625 -2 2 C-1.34 1.34 -0.68 0.68 0 0 Z " fill="#E3E3E3" transform="translate(434,318)"/>
<path d="M0 0 C0.99 0 1.98 0 3 0 C4.35439668 2.70879335 4.06501451 5.00933268 4 8 C2.02 8 0.04 8 -2 8 C-2.125 5.125 -2.125 5.125 -2 2 C-1.34 1.34 -0.68 0.68 0 0 Z " fill="#DCDCDC" transform="translate(345,244)"/>
<path d="M0 0 C2.51570636 0.97382182 3.73944098 1.46151135 4.9375 3.9375 C5 6 5 6 3.6875 7.75 C2 9 2 9 0 9 C-2 6 -2 6 -1.6875 3.375 C-1 1 -1 1 0 0 Z " fill="#FBD8DA" transform="translate(351,481)"/>
<path d="M0 0 C1.9375 0.75 1.9375 0.75 4 2 C4.75 4.125 4.75 4.125 5 6 C4.34 6 3.68 6 3 6 C3 6.66 3 7.32 3 8 C1.125 7.75 1.125 7.75 -1 7 C-2.25 4.9375 -2.25 4.9375 -3 3 C-2.01 2.01 -1.02 1.02 0 0 Z " fill="#FBD9D7" transform="translate(435,447)"/>
<path d="M0 0 C1.9375 0.25 1.9375 0.25 4 1 C4.66 1.99 5.32 2.98 6 4 C4.35 5.32 2.7 6.64 1 8 C-0.5625 6.75 -0.5625 6.75 -2 5 C-1.74853421 2.86254078 -1.54074221 1.54074221 0 0 Z " fill="#FDE4E1" transform="translate(341,482)"/>
<path d="M0 0 C1.32 0.99 2.64 1.98 4 3 C3.67 4.32 3.34 5.64 3 7 C1.125 7.625 1.125 7.625 -1 8 C-1.66 7.34 -2.32 6.68 -3 6 C-2.63318342 3.06546739 -2.13562754 2.13562754 0 0 Z " fill="#FBDDDB" transform="translate(347,488)"/>
<path d="M0 0 C-0.33 1.65 -0.66 3.3 -1 5 C-2.98 5 -4.96 5 -7 5 C-7 3.35 -7 1.7 -7 0 C-4.3333581 -1.33332095 -2.83319697 -0.67102033 0 0 Z " fill="#CC4348" transform="translate(402,466)"/>
<path d="M0 0 C2.05078125 0.03255208 4.1015625 0.06510417 6.15234375 0.09765625 C6.15234375 0.42765625 6.15234375 0.75765625 6.15234375 1.09765625 C4.17234375 1.42765625 2.19234375 1.75765625 0.15234375 2.09765625 C0.15234375 2.75765625 0.15234375 3.41765625 0.15234375 4.09765625 C1.47234375 4.75765625 2.79234375 5.41765625 4.15234375 6.09765625 C1.15234375 8.09765625 1.15234375 8.09765625 -0.84765625 8.09765625 C-0.84765625 7.10765625 -0.84765625 6.11765625 -0.84765625 5.09765625 C-2.16765625 5.09765625 -3.48765625 5.09765625 -4.84765625 5.09765625 C-2.44354091 0.12915121 -2.44354091 0.12915121 0 0 Z " fill="#FAD6D3" transform="translate(395.84765625,457.90234375)"/>
<path d="M0 0 C-1.375 1.5 -1.375 1.5 -3 3 C-3.66 3 -4.32 3 -5 3 C-5.33 6.63 -5.66 10.26 -6 14 C-6.66 13.67 -7.32 13.34 -8 13 C-7.9278125 12.39671875 -7.855625 11.7934375 -7.78125 11.171875 C-7.6884375 10.37265625 -7.595625 9.5734375 -7.5 8.75 C-7.4071875 7.96109375 -7.314375 7.1721875 -7.21875 6.359375 C-6.93845381 3.73109603 -6.93845381 3.73109603 -7 0 C-3.86650268 -1.04449911 -3.01031744 -0.93423645 0 0 Z " fill="#D8262B" transform="translate(416,448)"/>
<path d="M0 0 C2.8125 0.4375 2.8125 0.4375 4.8125 2.4375 C3.8125 3.4375 3.8125 3.4375 0 3.75 C-3.23925098 4.09893188 -4.06029971 4.33255976 -6.6875 6.5 C-7.43 7.4590625 -7.43 7.4590625 -8.1875 8.4375 C-8.1875 5.4375 -8.1875 5.4375 -6.0625 2.75 C-3.1875 0.4375 -3.1875 0.4375 0 0 Z " fill="#DB303C" transform="translate(398.1875,454.5625)"/>
<path d="M0 0 C1.67542976 0.28604898 3.34385343 0.61781233 5 1 C5 2.65 5 4.3 5 6 C3.35 6 1.7 6 0 6 C-0.38218767 4.34385343 -0.71395102 2.67542976 -1 1 C-0.67 0.67 -0.34 0.34 0 0 Z " fill="#D13D3F" transform="translate(429,465)"/>
<path d="M0 0 C0.99 0.66 1.98 1.32 3 2 C3 2.66 3 3.32 3 4 C4.98 2.68 6.96 1.36 9 0 C9.66 0.66 10.32 1.32 11 2 C9.02 3.65 7.04 5.3 5 7 C1.63279613 5.60667426 0.0140476 4.0210714 -2 1 C-1.34 0.67 -0.68 0.34 0 0 Z " fill="#CCCCCC" transform="translate(339,378)"/>
<path d="M0 0 C5.61 0 11.22 0 17 0 C17 0.33 17 0.66 17 1 C12.38 1.33 7.76 1.66 3 2 C2.34 4.97 1.68 7.94 1 11 C-1 7 -1 7 0 0 Z " fill="#1D1D1D" transform="translate(399,163)"/>
<path d="M0 0 C0.99 1.32 1.98 2.64 3 4 C2.34 4.66 1.68 5.32 1 6 C0.01 6 -0.98 6 -2 6 C-3.68798827 7.43750191 -3.68798827 7.43750191 -5 9 C-5 8.34 -5 7.68 -5 7 C-5.99 6.67 -6.98 6.34 -8 6 C-7.67 5.34 -7.34 4.68 -7 4 C-6.01 4 -5.02 4 -4 4 C-1.84971696 3.05021103 -1.84971696 3.05021103 0 2 C0 1.34 0 0.68 0 0 Z " fill="#CC565B" transform="translate(348,484)"/>
<path d="M0 0 C0.99 0 1.98 0 3 0 C3 6.27 3 12.54 3 19 C2.67 19 2.34 19 2 19 C2 13.72 2 8.44 2 3 C0.68 3.33 -0.64 3.66 -2 4 C-1.34 2.68 -0.68 1.36 0 0 Z " fill="#FDE0E1" transform="translate(308,460)"/>
<path d="M0 0 C3.67230705 3.07999946 4.56802365 5.2482602 5 10 C3.68 10.99 2.36 11.98 1 13 C0.67 11.68 0.34 10.36 0 9 C0.66 9 1.32 9 2 9 C1.34 6.03 0.68 3.06 0 0 Z " fill="#DD2F33" transform="translate(421,450)"/>
<path d="M0 0 C0 0.33 0 0.66 0 1 C-0.58007812 1.02578125 -1.16015625 1.0515625 -1.7578125 1.078125 C-7.4281273 1.48983103 -10.48574403 2.58678207 -15 6 C-15.66 6 -16.32 6 -17 6 C-17.33 5.01 -17.66 4.02 -18 3 C-11.92122066 -0.24201565 -6.81598387 -0.33278764 0 0 Z " fill="#D92734" transform="translate(358,455)"/>
<path d="M0 0 C0.66 0.66 1.32 1.32 2 2 C0.8125 4 0.8125 4 -1 6 C-3.6875 6.25 -3.6875 6.25 -6 6 C-5.67 4.35 -5.34 2.7 -5 1 C-3.35 1.33 -1.7 1.66 0 2 C0 1.34 0 0.68 0 0 Z " fill="#DC201E" transform="translate(379,491)"/>
<path d="M0 0 C0.66 0.33 1.32 0.66 2 1 C1.48847632 4.78527521 0.79154158 6.44108688 -2 9 C-2.33 9.99 -2.66 10.98 -3 12 C-4.65 12 -6.3 12 -8 12 C-7.59007812 11.55269531 -7.18015625 11.10539062 -6.7578125 10.64453125 C-3.74359926 7.26255515 -1.33949455 4.420332 0 0 Z " fill="#D1363D" transform="translate(331,478)"/>
<path d="M0 0 C0.66 1.32 1.32 2.64 2 4 C0.02 4.66 -1.96 5.32 -4 6 C-4.33 7.65 -4.66 9.3 -5 11 C-5.66 10.67 -6.32 10.34 -7 10 C-6.49396008 7.83125748 -6.00016187 6.00032373 -5 4 C-3.66666667 3.33333333 -2.33333333 2.66666667 -1 2 C-0.67 1.34 -0.34 0.68 0 0 Z " fill="#DE393E" transform="translate(356,485)"/>
<path d="M0 0 C2.12472576 -0.05386629 4.24983652 -0.09273071 6.375 -0.125 C7.55835938 -0.14820313 8.74171875 -0.17140625 9.9609375 -0.1953125 C13 0 13 0 15 2 C14.01 2 13.02 2 12 2 C11.071875 2.20625 10.14375 2.4125 9.1875 2.625 C5.54951302 3.05299847 3.36134151 2.36054299 0 1 C0 0.67 0 0.34 0 0 Z " fill="#D8262D" transform="translate(425,446)"/>
<path d="M0 0 C0.99 0.33 1.98 0.66 3 1 C0.69 3.31 -1.62 5.62 -4 8 C-4.66 7.34 -5.32 6.68 -6 6 C-4.02 4.02 -2.04 2.04 0 0 Z " fill="#E9E9E9" transform="translate(329,295)"/>
<path d="M0 0 C0 0.99 0 1.98 0 3 C-1.2065625 4.175625 -1.2065625 4.175625 -2.4375 5.375 C-5.09849617 8.10089852 -5.68258573 9.2968335 -6 13 C-6.33 13 -6.66 13 -7 13 C-7.4375 9.875 -7.4375 9.875 -7 6 C-4.93418366 3.61317961 -2.58391118 1.79950957 0 0 Z " fill="#262626" transform="translate(380,237)"/>
<path d="M0 0 C0.66 0 1.32 0 2 0 C3.01405257 1.32267727 4.01268258 2.65724831 5 4 C5.99 4.66 6.98 5.32 8 6 C7.01 6.33 6.02 6.66 5 7 C4.34 6.67 3.68 6.34 3 6 C2.67 6.66 2.34 7.32 2 8 C0 2.25 0 2.25 0 0 Z " fill="#DB3036" transform="translate(341,491)"/>
<path d="M0 0 C0.66 0.33 1.32 0.66 2 1 C1.67 1.66 1.34 2.32 1 3 C1.99 3.33 2.98 3.66 4 4 C4.33 4.99 4.66 5.98 5 7 C4.01 8.485 4.01 8.485 3 10 C2.938125 9.05125 2.87625 8.1025 2.8125 7.125 C2.544375 6.09375 2.27625 5.0625 2 4 C-0.46255685 2.54708727 -0.46255685 2.54708727 -3 2 C-2.01 1.34 -1.02 0.68 0 0 Z " fill="#D83844" transform="translate(363,457)"/>
<path d="M0 0 C0.99 0.33 1.98 0.66 3 1 C1.71937515 2.7074998 0.38232443 4.37373596 -1 6 C-1.66 6 -2.32 6 -3 6 C-2.625 3.5625 -2.625 3.5625 -2 1 C-1.34 0.67 -0.68 0.34 0 0 Z " fill="#DA2624" transform="translate(440,452)"/>
<path d="M0 0 C0.66 0 1.32 0 2 0 C2 2.31 2 4.62 2 7 C1.01 6.67 0.02 6.34 -1 6 C-1.042721 4.33388095 -1.04063832 2.66617115 -1 1 C-0.67 0.67 -0.34 0.34 0 0 Z " fill="#D33A46" transform="translate(316,471)"/>
<path d="M0 0 C1.98 0.66 3.96 1.32 6 2 C6.33 3.65 6.66 5.3 7 7 C5.1875 6.875 5.1875 6.875 3 6 C1.25 2.9375 1.25 2.9375 0 0 Z " fill="#D14449" transform="translate(427,447)"/>
<path d="M0 0 C0.99 0.66 1.98 1.32 3 2 C2.01 2.33 1.02 2.66 0 3 C-0.33 4.98 -0.66 6.96 -1 9 C-1.66 8.67 -2.32 8.34 -3 8 C-3 6.68 -3 5.36 -3 4 C-2.34 4 -1.68 4 -1 4 C-0.67 2.68 -0.34 1.36 0 0 Z " fill="#DE212B" transform="translate(391,455)"/>
<path d="M0 0 C1.65 0.33 3.3 0.66 5 1 C4.01 2.485 4.01 2.485 3 4 C1.35 3.67 -0.3 3.34 -2 3 C-1.34 2.01 -0.68 1.02 0 0 Z " fill="#FBFEF7" transform="translate(312,484)"/>
</svg>
